<svg width="37" height="37" fill="none" xmlns="http://www.w3.org/2000/svg"><circle opacity=".1" cx="18.5" cy="18.5" r="18" stroke="#fff"/><path opacity=".5" d="M24.328 15.344V14c0-.23-.115-.344-.344-.344h-1.312c-.23 0-.344.115-.344.344v1.344c0 .208.115.312.344.312h1.312c.23 0 .344-.104.344-.312Zm-10.344 9h10c.23 0 .344-.115.344-.344v-5.656h-1.406c.041.25.062.468.062.656 0 1.104-.396 2.052-1.187 2.844-.771.77-1.709 1.156-2.813 1.156a3.933 3.933 0 0 1-2.844-1.156A3.933 3.933 0 0 1 14.984 19c0-.23.021-.448.063-.656h-1.375V24c0 .23.104.344.312.344Zm6.906-7.219a2.594 2.594 0 0 0-1.906-.781c-.729 0-1.354.26-1.875.781A2.557 2.557 0 0 0 16.328 19c0 .73.26 1.354.781 1.875.521.52 1.146.781 1.875.781.75 0 1.386-.26 1.906-.781.521-.52.782-1.146.782-1.875 0-.73-.26-1.354-.782-1.875Zm3.438-4.781c.375 0 .688.135.938.406.27.25.406.552.406.906v10.688c0 .354-.136.656-.407.906-.25.27-.562.406-.937.406H13.672c-.375 0-.698-.135-.969-.406a1.235 1.235 0 0 1-.375-.906V13.656c0-.354.125-.656.375-.906.27-.27.594-.406.969-.406h10.656Z" fill="#fff"/></svg>