<svg width="37" height="37" fill="none" xmlns="http://www.w3.org/2000/svg"><circle cx="18.5" cy="18.5" r="18" stroke="#fff"/><path d="M23.969 16.281v.344a7.66 7.66 0 0 1-.531 2.781 8.08 8.08 0 0 1-1.469 2.469c-.625.75-1.448 1.365-2.469 1.844-1 .458-2.104.687-3.312.687A7.619 7.619 0 0 1 12 23.188c.209.02.427.03.656.03 1.271 0 2.407-.385 3.407-1.155a2.836 2.836 0 0 1-1.625-.563 2.648 2.648 0 0 1-.938-1.344 2.088 2.088 0 0 0 1.219-.062 2.662 2.662 0 0 1-1.563-.938 2.608 2.608 0 0 1-.625-1.718v-.032c.396.209.813.323 1.25.344-.812-.563-1.218-1.323-1.218-2.281 0-.5.125-.959.375-1.375.687.833 1.51 1.5 2.468 2 .98.5 2.032.781 3.157.843a3.185 3.185 0 0 1-.063-.625c0-.75.26-1.385.782-1.906.541-.541 1.187-.812 1.937-.812.792 0 1.458.281 2 .844a5.721 5.721 0 0 0 1.75-.657 2.626 2.626 0 0 1-1.219 1.5 5.779 5.779 0 0 0 1.594-.406 5.87 5.87 0 0 1-1.375 1.406Z" fill="#fff"/></svg>