<svg width="56" height="56" fill="none" xmlns="http://www.w3.org/2000/svg"><path d="M28 10.75a2.266 2.266 0 1 0 0 4.531 2.266 2.266 0 0 0 0-4.532Zm0 3.217a.953.953 0 1 1 0-1.906.953.953 0 0 1 0 1.906Z" fill="#2493EB"/><path d="M55.095 34.344h-1.078l-6.879-16.438a4.948 4.948 0 0 0 3.54-2.615.962.962 0 0 1 .45-.438 1.741 1.741 0 0 0-1.472-3.156 4.463 4.463 0 0 0-2.07 1.994 1.47 1.47 0 0 1-1.299.813 1.484 1.484 0 0 1-1.298-.829 4.39 4.39 0 0 0-3.884-2.41H32.05c-.41-.984-1.206-1.721-2.081-2.188V4.464a.65.65 0 0 0-.667-.636h-2.604a.648.648 0 0 0-.667.636v4.613c-.875.467-1.67 1.204-2.08 2.189h-9.047a4.387 4.387 0 0 0-3.882 2.404 1.45 1.45 0 0 1-2.61.012 4.454 4.454 0 0 0-2.067-1.987 1.743 1.743 0 0 0-1.472 3.159.96.96 0 0 1 .448.435 4.957 4.957 0 0 0 3.541 2.616L1.983 34.344H.905a.678.678 0 0 0-.686.65v.67c0 5.239 4.277 9.5 9.515 9.5 5.239 0 9.516-4.261 9.516-9.5v-.67a.652.652 0 0 0-.657-.65h-1.078l-6.884-16.45a4.971 4.971 0 0 0 3.482-2.612.91.91 0 0 1 .79-.516h9.069a4.455 4.455 0 0 0 2.06 2.186v21.001h-.527a.674.674 0 0 0-.677.656v5.141h-3.803a.713.713 0 0 0-.681.696v2.695H17.7a.609.609 0 0 0-.639.618v3.778a.625.625 0 0 0 .639.635h20.49a.622.622 0 0 0 .637-.635v-3.778a.608.608 0 0 0-.637-.618h-2.535v-2.695a.713.713 0 0 0-.681-.696h-3.803v-5.141a.674.674 0 0 0-.677-.656h-.526v-21a4.455 4.455 0 0 0 2.06-2.187h9.075a.913.913 0 0 1 .792.52 4.96 4.96 0 0 0 3.473 2.608l-6.884 16.45h-1.078a.651.651 0 0 0-.657.65v.67c0 5.239 4.277 9.5 9.516 9.5 5.238 0 9.515-4.261 9.515-9.5v-.67a.678.678 0 0 0-.686-.65ZM9.749 43.852a8.201 8.201 0 0 1-7.637-5.243h15.274a8.2 8.2 0 0 1-7.637 5.243Zm8.188-8.196v.008a8.349 8.349 0 0 1-.164 1.633H1.725a8.364 8.364 0 0 1-.194-1.633v-.008h16.407Zm-1.845-1.312H3.406L9.75 19.188l6.343 15.156Zm-1.188-20.89a2.217 2.217 0 0 0-1.956 1.224 3.621 3.621 0 0 1-6.462.006 2.275 2.275 0 0 0-1.072-1.026.422.422 0 0 1-.227-.388.415.415 0 0 1 .194-.355.424.424 0 0 1 .412-.027 3.14 3.14 0 0 1 1.454 1.402 2.758 2.758 0 0 0 4.94-.016 3.08 3.08 0 0 1 2.717-1.696h8.716c-.012.219-.02.277-.02.414 0 .154.008.308.024.461h-8.72Zm12.44-8.313h1.312v3.522a4.528 4.528 0 0 0-1.312 0V5.141Zm10.172 43.312v2.406H18.375v-2.406h19.14Zm-3.172-3.39v2.078H21.656v-2.078h12.688Zm-4.485-5.797v4.484h-3.718v-4.484h3.718Zm-2.515-1.313V17.366c.435.064.877.064 1.312 0v20.587h-1.312ZM28 16.101a3.087 3.087 0 1 1 0-6.174 3.087 3.087 0 0 1 0 6.174Zm15.062-1.42a2.22 2.22 0 0 0-1.957-1.228h-8.73c.017-.153.025-.307.024-.461 0-.137-.007-.195-.02-.414h8.726a3.082 3.082 0 0 1 2.718 1.7 2.752 2.752 0 0 0 4.927.012 3.14 3.14 0 0 1 1.457-1.404.423.423 0 0 1 .555.18.415.415 0 0 1 .05.202.426.426 0 0 1-.227.391c-.463.214-.84.576-1.073 1.03a3.609 3.609 0 0 1-6.45-.007Zm3.189 4.507 6.343 15.156H39.908l6.343-15.156Zm0 24.664a8.2 8.2 0 0 1-7.637-5.243h15.274a8.2 8.2 0 0 1-7.637 5.243Zm8.218-8.188a8.366 8.366 0 0 1-.194 1.633H38.227a8.34 8.34 0 0 1-.164-1.633v-.008h16.406v.008Z" fill="#2E2E26"/></svg>