<svg width="58" height="58" fill="none" xmlns="http://www.w3.org/2000/svg"><path d="M5.438 20.001a.68.68 0 0 0-.68.68v12.66a.68.68 0 1 0 1.36 0V20.68a.68.68 0 0 0-.68-.68ZM5.438 17.332a.68.68 0 0 0-.68.68v.553a.68.68 0 1 0 1.36 0v-.553a.68.68 0 0 0-.68-.68Z" fill="#2493EB"/><path d="M50.585 8.61H47.06a.729.729 0 0 0-.727.726v4.937H21.224l-2.87-2.87a7.939 7.939 0 0 1-2.216-4.276 6.294 6.294 0 0 0-1.992-3.65c-1.866-1.705-4.673-2.13-6.99-1.06a.68.68 0 0 0-.213 1.106l3.146 3.145-1.76 1.759-3.137-3.138a.681.681 0 0 0-1.106.18 6.392 6.392 0 0 0 3.942 8.804H1.926a.653.653 0 0 0-.68.649v37.356a.618.618 0 0 0 .2.454.654.654 0 0 0 .48.17h.002l2.943.014v2.576a.725.725 0 0 0 .716.695h31.47a.68.68 0 0 0 .666-.695V52.88l12.492-.035a6.575 6.575 0 0 0 6.539-6.564V14.762a6.161 6.161 0 0 0-6.169-6.153ZM36.363 54.827h-1.472v-.847a.68.68 0 0 0-1.36 0v.847h-2.945v-.847a.68.68 0 0 0-1.36 0v.847h-2.945v-.847a.68.68 0 0 0-1.36 0v.847H22.09v-.847a.68.68 0 0 0-1.36 0v.847h-2.945v-.847a.68.68 0 0 0-1.36 0v.847H13.48v-.847a.68.68 0 0 0-1.359 0v.847H9.176v-.847a.68.68 0 0 0-1.36 0v.847H6.23V50.75h2.162a.667.667 0 0 0 .482-.186l.034-.027a.672.672 0 0 0 .198-.476 12.23 12.23 0 0 1 1.634-6.123l.718.418a.68.68 0 1 0 .682-1.175l-.657-.381a12.335 12.335 0 0 1 3.35-3.127l.43.747a.68.68 0 0 0 1.177-.678l-.417-.73a11.803 11.803 0 0 1 4.594-1.196v.808a.681.681 0 0 0 1.16.48.68.68 0 0 0 .2-.48v-.813a11.89 11.89 0 0 1 4.65 1.2l-.421.73a.68.68 0 1 0 1.177.679l.429-.747a12.335 12.335 0 0 1 3.415 3.218l-.722.42a.679.679 0 1 0 .682 1.175l.773-.448a12.235 12.235 0 0 1 1.579 6.027c0 .18.07.352.197.48l.035.02a.668.668 0 0 0 .481.185h2.111v4.078Zm19.032-12.543a6.514 6.514 0 0 0-5.202-2.523h-2.502V22.43a.68.68 0 1 0-1.359 0v17.968a.725.725 0 0 0 .723.723h3.138a5.189 5.189 0 0 1 3.683 8.85 5.185 5.185 0 0 1-3.665 1.525l-12.488.027V50.1a.693.693 0 0 0-.666-.709h-2.174c-.337-7.136-6.29-12.984-13.56-12.984-7.27 0-13.224 5.848-13.561 12.984H5.587a.736.736 0 0 0-.716.709v1.48l-2.266.017V15.633h9.15c.47.303.906.656 1.301 1.05l9.237 9.237a.68.68 0 0 0 .961-.96l-9.236-9.238A9.505 9.505 0 0 0 8.954 13.1a4.955 4.955 0 0 1-2.63-1.387 5.032 5.032 0 0 1-1.342-4.711l2.867 2.867a.679.679 0 0 0 .961 0l2.72-2.719a.683.683 0 0 0 .001-.963L8.67 3.327a5.07 5.07 0 0 1 4.56 1.154 4.947 4.947 0 0 1 1.567 2.868 9.307 9.307 0 0 0 2.596 5.016l14.989 14.989a9.519 9.519 0 0 0 5.078 2.607 4.968 4.968 0 0 1 2.646 1.371 5.03 5.03 0 0 1 1.314 4.745l-2.746-2.746a.68.68 0 0 0-.961 0l-2.719 2.719a.661.661 0 0 0-.192.585c.022.143.089.275.19.377l2.737 2.736a5.072 5.072 0 0 1-4.542-1.168 4.957 4.957 0 0 1-1.552-2.883c-.306-1.848-1.214-3.572-2.628-4.985l-2.387-2.388a.679.679 0 1 0-.962.961l2.387 2.388c1.211 1.211 1.989 2.68 2.247 4.245a6.344 6.344 0 0 0 6.266 5.334c.927-.001 1.843-.203 2.684-.593a.68.68 0 0 0 .213-1.105l-3.021-3.022 1.76-1.76 3.024 3.025a.68.68 0 0 0 1.101-.203 6.4 6.4 0 0 0-1.251-7.223 6.321 6.321 0 0 0-3.366-1.747 8.166 8.166 0 0 1-4.36-2.231l-10.758-10.76h23.748v2.04a.68.68 0 0 0 1.36 0V9.969h2.893a4.8 4.8 0 0 1 4.81 4.793v27.523Z" fill="#2E2E26"/><path d="M29.712 29.608a1.652 1.652 0 0 0 1.169-2.82L17.93 13.839a1.651 1.651 0 1 0-2.337 2.336l12.951 12.951a1.648 1.648 0 0 0 1.168.483Zm-13.158-14.81a.293.293 0 0 1 .414 0L29.92 27.75a.293.293 0 1 1-.414.414l-12.95-12.951a.293.293 0 0 1 0-.414ZM21.354 42.515a7.554 7.554 0 0 0-7.534 7.55v.033a.64.64 0 0 0 .661.652h13.683c.375 0 .723-.276.723-.651v-.034a7.554 7.554 0 0 0-7.533-7.55Zm-6.16 6.875c.322-3.058 2.948-5.545 6.129-5.545 3.18 0 5.806 2.487 6.128 5.545H15.194Z" fill="#2493EB"/></svg>