<svg width="63" height="63" fill="none" xmlns="http://www.w3.org/2000/svg"><path d="M26.651 41.38a.784.784 0 0 0-.082-.034l-4.051-1.46V38.39a.736.736 0 0 0-.454-.681l.023-.001-2.276-.947v-.236a10.622 10.622 0 0 0 6.505-9.274 3.242 3.242 0 0 0 1.983-3.823 2.614 2.614 0 0 0-1.633-1.84l.191-2.785a11.22 11.22 0 1 0-22.386 0l.192 2.782a2.61 2.61 0 0 0-1.636 1.843 3.27 3.27 0 0 0-.093.777 3.23 3.23 0 0 0 2.072 3.048 10.67 10.67 0 0 0 6.56 9.298v.196l-2.28.95.016.01a.73.73 0 0 0-.443.683v1.495l-4.051 1.461a.763.763 0 0 0-.081.035 6.092 6.092 0 0 0-3.34 4.886c-.001.02-.033.04-.033.061v7.441c0 .408.392.74.8.74h10.115l2.913 3.884a.74.74 0 0 0 1.181 0l2.913-3.883h9.948c.407 0 .676-.334.676-.741v-7.44c0-.021.03-.042.029-.062a6.026 6.026 0 0 0-3.278-4.887Zm-4.01 4.948v6.705h-3.228l-1.526-8.225.44.293a.738.738 0 0 0 1-.172l2.731-3.642 2.642.953a6.074 6.074 0 0 0-2.045 4.026c-.002.021-.014.042-.014.062ZM8.736 53.033v-6.705c0-.02.002-.04 0-.061a6.06 6.06 0 0 0-2.04-4.033l2.623-.947 2.732 3.642a.738.738 0 0 0 1 .17l.634-.42-1.553 8.354H8.736Zm1.6-13.264 4.024 2.685-1.544 1.03-2.48-3.308v-.407Zm2.707.07v-2.802c.857.206 1.735.311 2.616.313.902-.001 1.8-.112 2.675-.33v2.813l-2.65 1.734-2.641-1.729Zm3.974 2.615 4.024-2.684v.405l-2.48 3.31-1.544-1.031Zm3.249-3.91-.455.304v-.49l.455.187ZM8.542 11.385a9.742 9.742 0 0 1 16.84 7.317l-.229 3.332a.278.278 0 0 1-.01.055l-1.24-5.11a.728.728 0 0 0-.037-.115 4.882 4.882 0 0 0-4.255-2.95l-.967-.043a.739.739 0 0 0-.634.31 8.847 8.847 0 0 1-8.149 3.666l-1.626-.175a1.144 1.144 0 0 0-1.264 1.047l-.28 3.497a17.527 17.527 0 0 1-.492-.187.08.08 0 0 1-.029-.057l-.226-3.27a9.646 9.646 0 0 1 2.598-7.318Zm-2.02 15.32v-.015a.75.75 0 0 0-.625-.726 1.8 1.8 0 0 1-1.433-2.183 1.117 1.117 0 0 1 .632-.775 1.543 1.543 0 0 0 .506.375c1.616.647 1.844.583 2.136.402a.761.761 0 0 0 .357-.584l.321-4.023 1.288.139a10.33 10.33 0 0 0 9.267-3.952l.576.026a3.398 3.398 0 0 1 2.938 2l1.533 6.321a.74.74 0 0 0 1.221.366l.834-.779a1.76 1.76 0 0 0 .225-.255 1.118 1.118 0 0 1 .562.738c.034.14.05.282.05.426a1.769 1.769 0 0 1-1.457 1.756.728.728 0 0 0-.598.728v.016a9.167 9.167 0 1 1-18.334 0Zm5.044 12.15-.473-.316.473-.194v.51ZM2.83 46.36c.246-1.441.984-2.746 2.214-3.488A4.59 4.59 0 0 1 7.26 46.36v6.673H2.83V46.36Zm12.943 10.358L13.51 53.7l1.889-10.166.29-.193.484.323L18.036 53.7l-2.263 3.018Zm12.65-3.685h-4.306V46.36a4.537 4.537 0 0 1 2.154-3.48 4.538 4.538 0 0 1 2.153 3.48v6.673Z" fill="#2E2E26"/><path d="M47.312 13.243a2.705 2.705 0 1 0 0 5.41 2.705 2.705 0 0 0 0-5.41Zm0 3.932a1.228 1.228 0 1 1 0-2.455 1.228 1.228 0 0 1 0 2.455ZM40.432 13.243a2.705 2.705 0 1 0 0 5.41 2.705 2.705 0 0 0 0-5.41Zm0 3.932a1.228 1.228 0 1 1 0-2.455 1.228 1.228 0 0 1 0 2.455ZM54.191 13.243a2.705 2.705 0 1 0 0 5.41 2.705 2.705 0 0 0 0-5.41Zm0 3.932a1.228 1.228 0 1 1 0-2.455 1.228 1.228 0 0 1 0 2.455Z" fill="#2493EB"/><path d="M57.281 7.611c-2.677-2.127-6.218-3.298-9.97-3.298-3.751 0-7.292 1.172-9.97 3.298-2.775 2.205-4.303 5.165-4.303 8.337 0 3.127 1.486 6.049 4.187 8.243l-.202 5.17a.737.737 0 0 0 1.025.708l6.424-2.725c.935.149 1.88.222 2.827.219h.013c3.751 0 7.292-1.162 9.97-3.288 2.775-2.205 4.303-5.16 4.303-8.332 0-3.172-1.528-6.127-4.304-8.332Zm-.918 15.508c-2.417 1.92-5.632 2.967-9.051 2.967h-.013a16.168 16.168 0 0 1-2.788-.234.739.739 0 0 0-.416.052l-5.551 2.35.172-4.383a.738.738 0 0 0-.288-.613l-.022-.016c-.05-.038-.098-.075-.146-.114-2.415-1.918-3.745-4.468-3.745-7.18 0-2.712 1.33-5.262 3.745-7.18 2.416-1.92 5.632-2.978 9.052-2.978s6.634 1.057 9.05 2.977c2.418 1.92 3.746 4.464 3.746 7.176 0 2.712-1.33 5.257-3.745 7.176Z" fill="#2E2E26"/></svg>