<svg width="60" height="60" fill="none" xmlns="http://www.w3.org/2000/svg"><path d="M20.624 18.942h8.147a.703.703 0 0 0 0-1.406h-8.147a.703.703 0 0 0 0 1.406ZM34.982 26.121H37.2a.703.703 0 0 0 0-1.406h-2.218a.703.703 0 0 0 0 1.406ZM20.624 23.221h8.147a.703.703 0 0 0 0-1.406h-8.147a.703.703 0 0 0 0 1.406ZM34.982 21.927h5.253a.703.703 0 0 0 0-1.406h-5.253a.703.703 0 0 0 0 1.406ZM34.982 17.735h5.253a.703.703 0 0 0 0-1.407h-5.253a.703.703 0 1 0 0 1.407ZM20.624 14.663h8.147a.703.703 0 0 0 0-1.407h-8.147a.703.703 0 0 0 0 1.407Z" fill="#2493EB"/><path d="M45.118 23.055a1.643 1.643 0 0 0-1.409-.94v-9.326a.703.703 0 0 0-.703-.703h-9.902V9.15a.703.703 0 0 0-.703-.703h-1.467V4.922a.703.703 0 0 0-.703-.703h-4.362V1.907a.703.703 0 0 0-1.406 0v2.312h-5.299a.703.703 0 0 0-.703.703v3.525h-1.467a.703.703 0 0 0-.703.703v13.406l-.048.011a1.646 1.646 0 0 0-1.015.821L6.458 40.18a1.634 1.634 0 0 0 .649 2.19l3.256 1.835a1.63 1.63 0 0 0 1.27.144 1.629 1.629 0 0 0 .988-.81l.47-.892 1.382 1.153-2.068 2.87a2.843 2.843 0 0 0 .645 3.964l.005.004a2.82 2.82 0 0 0 2.301.462 2.817 2.817 0 0 0 1.16 2.032l.005.003.007.005a2.82 2.82 0 0 0 2.301.461 2.823 2.823 0 0 0 1.169 2.038l.004.003a2.824 2.824 0 0 0 2.3.46 2.826 2.826 0 0 0 1.169 2.04l.004.003a2.82 2.82 0 0 0 2.114.498 2.822 2.822 0 0 0 1.849-1.144l.716-.993 1.29 1.031a3.027 3.027 0 0 0 2.206.725 3.048 3.048 0 0 0 2.82-2.842 3.029 3.029 0 0 0 1.28.18 3.05 3.05 0 0 0 2.822-2.841 3.05 3.05 0 0 0 4.092-2.562 3.018 3.018 0 0 0 1.517.279 3.049 3.049 0 0 0 2.093-1.057l.038-.044a2.982 2.982 0 0 0-.308-4.207l-.875-.755a6.661 6.661 0 0 0 1.589-1.414 1.633 1.633 0 0 0 2.123.781l3.43-1.486a1.639 1.639 0 0 0 .834-2.202l-7.987-17.036Zm-2.815-9.563v9.02l-2.796 1.101a1.64 1.64 0 0 0-.882 2.227l.466.988-.276.118c-1.315.274-2.23.236-3.585-.145l-2.126-.598V13.492h9.2ZM19.867 5.625h9.66v2.822h-9.66V5.625Zm11.831 4.228v15.959a5.13 5.13 0 0 0-2.764.095L25.7 26.93a5.135 5.135 0 0 0-1.787.992 7.08 7.08 0 0 0-2.953-.26l.412-.783a1.644 1.644 0 0 0-.6-2.164l-3.074-1.871V9.854h14.001Zm-20.322 33.03a.236.236 0 0 1-.233.124.233.233 0 0 1-.09-.028l-3.256-1.836a.234.234 0 0 1-.093-.313l8.77-16.79a.234.234 0 0 1 .33-.092l3.236 1.968a.234.234 0 0 1 .085.31l-8.748 16.657Zm4.502 6.288a1.433 1.433 0 0 1-2.002.325l-.005-.004a1.436 1.436 0 0 1-.325-2.002l3.232-4.486a1.425 1.425 0 0 1 .934-.577 1.44 1.44 0 0 1 1.398 2.258l-3.232 4.486Zm3.473 2.502a1.435 1.435 0 0 1-2 .327c-.002-.002-.005-.005-.007-.005a1.433 1.433 0 0 1-.325-2.003l2.345-3.255a1.437 1.437 0 1 1 2.331 1.682l-2.344 3.254Zm3.473 2.502a1.436 1.436 0 0 1-2.002.325l-.005-.003a1.434 1.434 0 0 1-.325-2.002l1.618-2.246a1.424 1.424 0 0 1 1.166-.596 1.438 1.438 0 0 1 1.166 2.276l-1.618 2.246Zm4.364 1.265-.891 1.237a1.434 1.434 0 0 1-2.002.325L24.29 57a1.434 1.434 0 0 1-.325-2.002l.891-1.237a1.427 1.427 0 0 1 1.167-.596c.298-.001.587.092.829.266l.011.008a1.433 1.433 0 0 1 .326 2.002Zm18.439-8.131a1.565 1.565 0 0 1-.379 1.145l-.038.044a1.652 1.652 0 0 1-1.77.496 1.633 1.633 0 0 1-.558-.317l-1.25-1.08-.01-.01-3.323-2.87a.702.702 0 1 0-.92 1.064s1.693 1.46 3.33 2.877a1.644 1.644 0 0 1-2.155 2.482l-3.324-2.871a.703.703 0 0 0-.919 1.064l2.292 1.98a1.646 1.646 0 0 1 .17 2.32 1.642 1.642 0 0 1-2.32.169l-2.292-1.98a.706.706 0 0 0-1.06.167.704.704 0 0 0 .14.897l1.261 1.09a1.644 1.644 0 1 1-2.17 2.47l-1.535-1.226a2.844 2.844 0 0 0-1.106-2.918l-.012-.008a2.82 2.82 0 0 0-1.64-.536 2.849 2.849 0 0 0-2.746-3.51 2.844 2.844 0 0 0-2.652-3.507 2.843 2.843 0 0 0-5.005-2.558l-.34.472-1.538-1.283L20.13 29.24c.9-.243 1.84-.288 2.759-.132-.146.234-.274.479-.381.733l-.988 2.409a27.83 27.83 0 0 0-.692 1.875l-.986 3.011a.703.703 0 0 0 .382.861l.212.095a4.962 4.962 0 0 0 4.794-.368 4.877 4.877 0 0 0 2.179-3.759c.044-.21.376-1.636 1.344-1.72l1.408.397c.539.152 1.03.438 1.428.831l8.824 8.724.035.033 4.637 4.002a1.564 1.564 0 0 1 .542 1.077Zm-1.625-3.871-2.616-2.258-8.808-8.707a4.725 4.725 0 0 0-2.035-1.185l-1.516-.428a.668.668 0 0 0-.193-.026c-.968.004-1.794.55-2.328 1.54-.232.434-.396.9-.488 1.383l-.022.232a3.476 3.476 0 0 1-1.546 2.564 3.59 3.59 0 0 1-3.067.397l.782-2.387c.195-.598.416-1.196.655-1.78l.986-2.402a3.735 3.735 0 0 1 2.317-2.11l3.235-1.024a3.728 3.728 0 0 1 2.14-.034l3.35.942c1.61.452 2.742.492 4.326.152a.711.711 0 0 0 .128-.04l.388-.166 6.339 13.44a5.256 5.256 0 0 1-2.027 1.897Zm7.837-2.568a.232.232 0 0 1-.126.132l-3.43 1.486a.234.234 0 0 1-.305-.115l-.457-.968a.705.705 0 0 0-.14-.297L39.897 25.24a.235.235 0 0 1 .126-.319l3.524-1.388a.234.234 0 0 1 .298.119l7.987 17.035a.233.233 0 0 1 .007.183Z" fill="#2E2E26"/></svg>