<svg width="56" height="56" fill="none" xmlns="http://www.w3.org/2000/svg"><path d="M10 10.123c2.56 0 4.644-2.025 4.644-4.515 0-2.489-2.084-4.514-4.645-4.514-2.561 0-4.645 2.025-4.645 4.514 0 2.49 2.083 4.515 4.645 4.515Zm0-7.717c1.837 0 3.332 1.437 3.332 3.202 0 1.766-1.495 3.203-3.333 3.203S6.666 7.374 6.666 5.608c0-1.765 1.496-3.202 3.333-3.202ZM3.39 21.208h13.218a.656.656 0 0 0 .656-.656v-3.235a6.076 6.076 0 0 0-6.069-6.07H8.803a6.076 6.076 0 0 0-6.069 6.07v3.235a.656.656 0 0 0 .657.656Zm.657-3.891a4.762 4.762 0 0 1 4.756-4.757h2.392a4.761 4.761 0 0 1 4.756 4.757v2.578H4.047v-2.578ZM43.714 10.123c2.56 0 4.645-2.025 4.645-4.515 0-2.489-2.084-4.514-4.645-4.514-2.562 0-4.645 2.025-4.645 4.514 0 2.49 2.083 4.515 4.645 4.515Zm0-7.717c1.837 0 3.332 1.437 3.332 3.202 0 1.766-1.495 3.203-3.332 3.203-1.838 0-3.333-1.437-3.333-3.203 0-1.765 1.495-3.202 3.333-3.202ZM37.105 21.208h13.217a.656.656 0 0 0 .656-.656v-3.235a6.076 6.076 0 0 0-6.069-6.07h-2.392a6.075 6.075 0 0 0-6.068 6.07v3.235a.657.657 0 0 0 .656.656Zm.656-3.891a4.762 4.762 0 0 1 4.756-4.757h2.392a4.762 4.762 0 0 1 4.757 4.757v2.578H37.76v-2.578ZM26.856 10.123c2.562 0 4.645-2.025 4.645-4.515 0-2.489-2.083-4.514-4.645-4.514-2.561 0-4.645 2.025-4.645 4.514 0 2.49 2.084 4.515 4.645 4.515Zm0-7.717c1.838 0 3.333 1.437 3.333 3.202 0 1.766-1.495 3.203-3.333 3.203-1.837 0-3.332-1.437-3.332-3.203 0-1.765 1.495-3.202 3.332-3.202ZM20.248 21.208h13.217a.656.656 0 0 0 .656-.656v-3.235a6.076 6.076 0 0 0-6.069-6.07H25.66a6.076 6.076 0 0 0-6.068 6.07v3.235a.656.656 0 0 0 .656.656Zm.656-3.891a4.761 4.761 0 0 1 4.756-4.757h2.392a4.762 4.762 0 0 1 4.756 4.757v2.578H20.904v-2.578Z" fill="#2E2E26"/><path d="M27.135 33.712c2.354 0 4.27-1.862 4.27-4.152 0-2.289-1.916-4.152-4.27-4.152-2.355 0-4.27 1.863-4.27 4.152 0 2.29 1.915 4.152 4.27 4.152Zm0-6.991c1.63 0 2.957 1.274 2.957 2.84 0 1.565-1.326 2.839-2.957 2.839-1.631 0-2.958-1.274-2.958-2.84 0-1.565 1.327-2.84 2.958-2.84ZM21.148 43.754h11.974a.656.656 0 0 0 .656-.656v-2.421a6.075 6.075 0 0 0-6.069-6.07H26.56a6.076 6.076 0 0 0-6.069 6.07v2.421a.656.656 0 0 0 .657.656Zm.656-3.078a4.762 4.762 0 0 1 4.756-4.756h1.15a4.762 4.762 0 0 1 4.756 4.757v1.765H21.804v-1.766Z" fill="#2493EB"/><path d="M14.278 37.367c.988 6.264 6.56 10.75 12.899 10.75.683 0 1.365-.052 2.04-.155a13.156 13.156 0 0 0 8.098-4.468l2.973 2.156a1.994 1.994 0 0 0 .636 2.496l8.802 6.376a2.065 2.065 0 0 0 2.844-.435l.297-.398a1.995 1.995 0 0 0-.44-2.82l-8.802-6.375a2.07 2.07 0 0 0-2.54.113l-2.97-2.154a12.389 12.389 0 0 0 2.084-9.037c-1.092-6.929-7.794-11.681-14.939-10.594-3.536.538-6.626 2.396-8.702 5.232a12.402 12.402 0 0 0-2.28 9.313Zm28.149 8.053c.154 0 .305.048.431.138l8.803 6.376a.69.69 0 0 1 .271.726.676.676 0 0 1-.116.243l-.297.398a.745.745 0 0 1-1.025.156L41.69 47.08a.689.689 0 0 1-.272-.726.677.677 0 0 1 .117-.243l.297-.398a.74.74 0 0 1 .594-.294ZM25.457 24.12c.61-.093 1.227-.14 1.844-.14 5.704 0 10.716 4.022 11.602 9.641a11.1 11.1 0 0 1-2.044 8.334 11.831 11.831 0 0 1-7.84 4.71c-6.433.979-12.464-3.283-13.445-9.501a11.1 11.1 0 0 1 2.043-8.334 11.832 11.832 0 0 1 7.84-4.71Z" fill="#2E2E26"/></svg>