<svg width="22" height="22" fill="none" xmlns="http://www.w3.org/2000/svg"><g opacity=".5" clip-path="url(#a)" fill="#fff"><path d="M10.983 0a6.478 6.478 0 0 0-6.471 6.471v9.058A6.478 6.478 0 0 0 10.982 22a6.478 6.478 0 0 0 6.472-6.471V6.47A6.478 6.478 0 0 0 10.983 0Zm5.151 15.529c0 2.84-2.31 5.151-5.151 5.151a5.157 5.157 0 0 1-5.151-5.151V6.47c0-2.84 2.31-5.151 5.15-5.151 2.841 0 5.152 2.31 5.152 5.151v9.058Z"/><path d="M10.983 4.376a.66.66 0 0 0-.66.66v3.038a.66.66 0 0 0 1.32 0V5.036a.66.66 0 0 0-.66-.66Z"/></g><defs><clipPath id="a"><path fill="#fff" d="M0 0h22v22H0z"/></clipPath></defs></svg>