<svg width="58" height="58" fill="none" xmlns="http://www.w3.org/2000/svg"><path d="m25.158 55.315 3.32 1.387a.686.686 0 0 0 .535-.004l3.464-1.502A29.216 29.216 0 0 0 50.41 28.258V13.46a.687.687 0 0 0-.356-.594L29.334 1.332a.683.683 0 0 0-.663 0L7.947 12.865a.687.687 0 0 0-.357.594v15.072a29.202 29.202 0 0 0 17.568 26.784ZM8.95 13.859 29 2.703 49.05 13.86v14.4a27.86 27.86 0 0 1-17.102 25.686l-3.207 1.39-3.049-1.27A27.841 27.841 0 0 1 8.95 28.53V13.858Z" fill="#2E2E26"/><path d="M26.31 52.572c.003.002.018.003.021.004l2.123.885a.696.696 0 0 0 .537-.004l2.326-1.008a26.267 26.267 0 0 0 16.148-24.19V15.214a.703.703 0 0 0-.374-.594L29.343 4.745a.692.692 0 0 0-.667 0l-17.764 9.874a.706.706 0 0 0-.377.594V28.53A26.236 26.236 0 0 0 26.31 52.572ZM29 19.193A9.807 9.807 0 1 1 19.196 29 9.817 9.817 0 0 1 29 19.193Zm17.105-3.58V28.26A24.921 24.921 0 0 1 30.798 51.2l-1.384.596.065-11.64a11.166 11.166 0 0 0 .125-22.305l.09-11.359 16.412 9.12Zm-34.21 0 16.394-9.114-.053 11.362a11.167 11.167 0 0 0-.118 22.272l-.069 11.683-1.2-.492a24.878 24.878 0 0 1-14.954-22.793V15.612Z" fill="#2E2E26"/><path d="M15.18 27.072v-3.57a.68.68 0 1 0-1.36 0v3.57a26.3 26.3 0 0 0 3.277 12.681.687.687 0 0 0 .93.267.676.676 0 0 0 .259-.924 24.936 24.936 0 0 1-3.106-12.024ZM14.5 21.374a.68.68 0 0 0 .68-.68v-.616a.68.68 0 0 0-1.36 0v.616a.68.68 0 0 0 .68.68ZM25.368 30.763l-.624 3.642a.68.68 0 0 0 .986.716l3.27-1.72 3.27 1.72a.68.68 0 0 0 .986-.716l-.624-3.642 2.645-2.58a.68.68 0 0 0-.377-1.159l-3.656-.531-1.634-3.314a.68.68 0 0 0-1.22 0l-1.634 3.314-3.656.531a.679.679 0 0 0-.377 1.16l2.645 2.579Zm1.937-2.977a.68.68 0 0 0 .511-.372L29 25.017l1.184 2.399a.68.68 0 0 0 .511.371l2.647.386-1.915 1.867a.679.679 0 0 0-.196.602l.452 2.637-2.367-1.245a.68.68 0 0 0-.633 0l-2.367 1.245.452-2.637a.68.68 0 0 0-.196-.602l-1.915-1.867 2.648-.386Z" fill="#2493EB"/></svg>