<svg width="56" height="56" fill="none" xmlns="http://www.w3.org/2000/svg"><path d="M28 28.536a12.008 12.008 0 1 0-12.008-12.008A12.021 12.021 0 0 0 28 28.536Zm0-22.703a10.695 10.695 0 1 1-10.695 10.695A10.707 10.707 0 0 1 28 5.833Z" fill="#2493EB"/><path d="M23.472 10.478A7.487 7.487 0 0 1 28 8.968V7.657a8.79 8.79 0 0 0-5.316 1.773 8.961 8.961 0 0 0-3.164 4.487l1.254.387a7.638 7.638 0 0 1 2.698-3.825ZM19.231 15.167a9.02 9.02 0 0 0-.103 1.349h1.312c.002-.386.031-.771.088-1.152l-1.297-.197Z" fill="#2493EB"/><path d="M25.922 31.834v2.4h-1.531a.692.692 0 0 0-.656.697v19.325a.65.65 0 0 0 .656.65h7.219a.651.651 0 0 0 .656-.65V34.931a.692.692 0 0 0-.656-.697h-1.532v-2.4A15.454 15.454 0 0 0 43.46 16.528c0-8.514-6.936-15.441-15.45-15.441-8.515 0-15.465 6.927-15.465 15.441a15.45 15.45 0 0 0 13.377 15.306Zm5.031 21.76h-5.906V50.53h5.906v3.062Zm0-18.047v13.671h-5.906V35.546h.875v1.799c0 .362.33.608.693.608h2.77c.363 0 .693-.246.693-.608v-1.798h.875Zm-3.718 1.093v-4.688c.328.01.52.017.765.017.244 0 .438-.006.766-.017v4.688h-1.531ZM28 2.4a14.129 14.129 0 1 1-14.129 14.128A14.145 14.145 0 0 1 28.001 2.4Z" fill="#2E2E26"/></svg>