<svg width="56" height="56" fill="none" xmlns="http://www.w3.org/2000/svg"><g clip-path="url(#a)"><path d="M11.914 44.749c.24.282.663.32.95.086l6.807-5.538a.682.682 0 0 0-.862-1.06l-6.29 5.117-2.49-2.915a.682.682 0 1 0-1.038.887l2.923 3.423Z" fill="#2493EB"/><path d="m12.41 55.29 1.5.653c.173.076.37.076.543.001l1.69-.73a16.373 16.373 0 0 0 1.935-.976h32.48a2.89 2.89 0 0 0 2.886-2.886V5.53a2.89 2.89 0 0 0-2.886-2.886H35.806a4.648 4.648 0 0 0-8.386 0H12.667A2.89 2.89 0 0 0 9.781 5.53v23.88l-6.695 3.669a.683.683 0 0 0-.354.599v6.833a16.148 16.148 0 0 0 9.678 14.778ZM50.558 4.01c.84 0 1.52.68 1.52 1.52v45.822c0 .839-.68 1.519-1.52 1.52H20.046a16.118 16.118 0 0 0 3.95-4.701h16.807c.089 0 .178-.007.266-.02a.676.676 0 0 0 .673-.213c.176-.094.337-.213.478-.354l5.528-5.528c.377-.376.588-.886.587-1.418V10.495a1.786 1.786 0 0 0-1.784-1.784h-3.02V6.63a.683.683 0 0 0-.683-.683h-6.587v-1.3a4.66 4.66 0 0 0-.045-.638h14.342ZM25.656 33.075l-9.4-5.01v-17.57c0-.231.188-.418.419-.418h3.02v1.84c0 .378.305.684.683.684h22.47a.683.683 0 0 0 .683-.683v-1.841h3.02c.23 0 .418.187.418.418v29.98h-3.537a2.889 2.889 0 0 0-2.886 2.886v3.444H24.672a16.08 16.08 0 0 0 1.346-6.448v-6.68a.682.682 0 0 0-.362-.602Zm20.375 8.766-4.119 4.119v-2.6c0-.838.68-1.519 1.52-1.52h2.599ZM31.613 1.366a3.287 3.287 0 0 1 3.282 3.282v1.983c0 .377.306.683.683.683h6.587v3.92H21.061v-3.92h6.586a.683.683 0 0 0 .683-.683V4.648a3.286 3.286 0 0 1 3.283-3.282ZM11.147 5.53c0-.84.681-1.52 1.52-1.52h14.342c-.03.211-.044.425-.045.638v1.3h-6.586a.683.683 0 0 0-.683.683v2.08h-3.02c-.985.001-1.783.8-1.784 1.784v16.843l-.349-.185a.682.682 0 0 0-.65.004l-2.745 1.504V5.53Zm-7.05 28.552 6.69-3.666.005-.003 3.433-1.881 1.02.543.007.003 9.4 5.01v6.27a14.753 14.753 0 0 1-9.043 13.6l-.005.001-1.42.613-1.227-.535a14.78 14.78 0 0 1-8.86-13.526v-6.429Z" fill="#2E2E26"/><path d="M42.02 19.56h.828a.683.683 0 0 0 0-1.365h-.828a.683.683 0 0 0 0 1.365ZM27.3 19.56h12.14a.683.683 0 0 0 0-1.365H27.3a.683.683 0 0 0 0 1.365ZM20.378 19.56h4.291a.683.683 0 1 0 0-1.365h-4.291a.683.683 0 0 0 0 1.365Z" fill="#2493EB"/><path d="M39.844 24.817c0 .377.306.682.683.682h2.321a.683.683 0 0 0 0-1.365h-2.32a.683.683 0 0 0-.684.683ZM38.015 25.5a.683.683 0 0 0 0-1.366h-3.163a.683.683 0 0 0 0 1.365h3.163ZM33.327 24.817a.683.683 0 0 0-.683-.683H20.378a.683.683 0 0 0 0 1.365h12.266a.683.683 0 0 0 .683-.682ZM42.848 30.443H30.015a.683.683 0 1 0 0 1.366h12.833a.683.683 0 0 0 0-1.366ZM28.186 31.126a.683.683 0 0 0-.683-.683h-3.05a.683.683 0 1 0 0 1.366h3.05a.683.683 0 0 0 .683-.683ZM42.848 36.275h-8.27a.683.683 0 0 0 0 1.366h8.27a.683.683 0 0 0 0-1.366ZM32.066 36.275h-4.337a.683.683 0 0 0 0 1.366h4.337a.683.683 0 0 0 0-1.366Z" fill="#2E2E26"/></g><defs><clipPath id="a"><path fill="#fff" d="M0 0h56v56H0z"/></clipPath></defs></svg>