<svg width="56" height="56" fill="none" xmlns="http://www.w3.org/2000/svg"><path d="M42.319 18.03a.656.656 0 1 0-.928-.928l-1.308 1.308a17.683 17.683 0 0 0-11.448-4.75v-1.842a.656.656 0 1 0-1.313 0v1.844a17.684 17.684 0 0 0-11.427 4.77l-1.33-1.33a.656.656 0 1 0-.928.928l1.332 1.332a17.744 17.744 0 0 0-4.721 11.425H8.353a.656.656 0 1 0 0 1.312h1.895a17.79 17.79 0 0 0 .408 3.205.657.657 0 0 0 1.283-.281 16.488 16.488 0 0 1-.392-3.58c0-9.089 7.38-16.483 16.453-16.483 9.072 0 16.453 7.394 16.453 16.483 0 9.09-7.38 16.483-16.453 16.483a16.459 16.459 0 0 1-14.387-8.495.656.656 0 1 0-1.142.648 17.893 17.893 0 0 0 2.499 3.444l-1.333 1.333a.658.658 0 0 0 0 .928.657.657 0 0 0 .928 0l1.33-1.33a17.682 17.682 0 0 0 11.427 4.77v1.844a.657.657 0 0 0 1.313 0v-1.842a17.684 17.684 0 0 0 11.448-4.75l1.308 1.308a.657.657 0 0 0 .928-.928l-1.309-1.309A17.745 17.745 0 0 0 45.752 32.1h1.851a.656.656 0 0 0 0-1.312h-1.85a17.745 17.745 0 0 0-4.743-11.448l1.309-1.309Z" fill="#2E2E26"/><path d="M25.737 16.231c-.257.039-.518.084-.774.136a.656.656 0 1 0 .26 1.287c.235-.048.473-.09.708-.125a.656.656 0 0 0-.194-1.298ZM14.095 31.281a13.89 13.89 0 0 1 8.465-12.8.656.656 0 0 0-.514-1.208 15.202 15.202 0 0 0-9.263 14.008.656.656 0 1 0 1.312 0Z" fill="#2E2E26"/><path d="M36.964 22.778a.656.656 0 0 0-.928-.016L29.41 29.17a2.617 2.617 0 1 0 .893.962l6.646-6.425a.657.657 0 0 0 .016-.928ZM28 32.679a1.305 1.305 0 1 1-.007-2.61 1.305 1.305 0 0 1 .007 2.61Z" fill="#2493EB"/><path d="m42.385 12.233 1.056-1.439.984.637a1.948 1.948 0 0 0 1.479.272 1.965 1.965 0 0 0 .652-3.57l-5.484-3.55a1.964 1.964 0 0 0-2.13 3.3l1.178.762-1.068 1.481a23.733 23.733 0 0 0-8.982-2.604V4.905h.979a2.179 2.179 0 1 0 0-4.358h-6.097a2.179 2.179 0 1 0 0 4.358h.871v2.627A24.022 24.022 0 0 0 11.051 48.42a23.99 23.99 0 1 0 31.334-36.187Zm-2.73-5.452a.655.655 0 0 1 .215-1.185.656.656 0 0 1 .49.09l5.483 3.549a.655.655 0 0 1 .018 1.084.65.65 0 0 1-.723.011l-5.483-3.549Zm2.682 3.3-1.02 1.39a23.455 23.455 0 0 0-1.11-.701l1.017-1.41 1.113.72ZM24.952 3.592a.867.867 0 0 1 0-1.733h6.097a.866.866 0 1 1 0 1.733h-6.097Zm3.805 1.313v2.541A24.54 24.54 0 0 0 28 7.433c-.289 0-.577.007-.864.017V4.905h1.621ZM28 54.14c-12.493 0-22.657-10.182-22.657-22.698C5.343 18.928 15.507 8.745 28 8.745s22.657 10.183 22.657 22.698S40.493 54.141 28 54.141Z" fill="#2E2E26"/></svg>