<svg width="55" height="55" fill="none" xmlns="http://www.w3.org/2000/svg"><path d="m33.61 26.868 1.887-1.887a.646.646 0 0 0 0-.912l-.566-.565 11.815-11.815 2.992-1.062a.644.644 0 0 0 .34-.282l3.553-6.076a.644.644 0 0 0-.1-.78l-2.02-2.02a.645.645 0 0 0-.78-.1l-6.076 3.553a.645.645 0 0 0-.282.34l-1.061 2.992-11.816 11.815-.566-.566a.645.645 0 0 0-.911 0l-1.887 1.888-3.69-3.69A12.426 12.426 0 0 0 9.012 1.178a.645.645 0 0 0-.25 1.067l4.531 4.532-1.079 5.38-5.591.989-4.37-4.4a.646.646 0 0 0-1.07.25 12.426 12.426 0 0 0 16.519 15.448l2.194 2.194-2.438 1.334a.64.64 0 0 0-.146.11L2.756 42.637a5.042 5.042 0 0 0 0 7.122l2.484 2.484a5.042 5.042 0 0 0 7.122 0l14.556-14.555a.645.645 0 0 0 .11-.147l1.334-2.438 17.964 17.963a4.768 4.768 0 0 0 7.774-5.194 4.765 4.765 0 0 0-1.033-1.546L33.609 26.868Zm-1.219 3.66a1.14 1.14 0 0 1-1.611 0l-6.308-6.307a1.14 1.14 0 0 1 1.611-1.612l6.308 6.308a1.142 1.142 0 0 1 0 1.612ZM44.326 9.064a.645.645 0 0 0 .151-.24l1.032-2.908 5.443-3.182 1.315 1.315-3.182 5.443-2.907 1.031a.644.644 0 0 0-.24.152L34.019 22.592l-1.61-1.611L44.325 9.063ZM30.475 20.87l3.654 3.654-2.153 2.154-3.655-3.655 2.154-2.153Zm-12.172 2.35a.646.646 0 0 0-.723-.13 11.182 11.182 0 0 1-12.493-2.26 11.067 11.067 0 0 1-2.974-10.398l3.833 3.86a.644.644 0 0 0 .57.18l6.356-1.123a.645.645 0 0 0 .52-.508l1.233-6.15a.643.643 0 0 0-.176-.583l-4-4A11.138 11.138 0 0 1 23.09 17.58a.645.645 0 0 0 .13.724l2.805 2.804a2.422 2.422 0 0 0-2.866 1.122l-1.144-1.144a.644.644 0 1 0-.912.911l1.776 1.777c.054.364.19.711.398 1.015l-2.201 1.205-2.773-2.772Zm7.64 13.62L11.45 51.334a3.752 3.752 0 0 1-5.3 0l-2.484-2.485a3.752 3.752 0 0 1 0-5.3l14.491-14.49 6.029-3.3 5.054 5.055-3.299 6.029Zm26.213 15.314a3.477 3.477 0 0 1-4.918 0l-18.23-18.23 1.205-2.2c.307.21.658.347 1.027.4.01.014.02.028.033.04L45.425 46.32a.644.644 0 0 0 .911-.912L32.77 31.84a2.416 2.416 0 0 0 1.123-2.865l18.262 18.262a3.477 3.477 0 0 1 0 4.918Z" fill="#2E2E26"/><path d="M21.196 15.004a.644.644 0 0 0 .642-.595 9.975 9.975 0 0 0-.474-3.9.645.645 0 1 0-1.224.405 8.685 8.685 0 0 1 .413 3.396.644.644 0 0 0 .643.694ZM20.272 8.234a9.969 9.969 0 0 0-.61-.84.644.644 0 1 0-1.002.81c.19.235.367.479.531.732a.644.644 0 1 0 1.081-.702ZM19.91 36.954 9.612 47.252a.644.644 0 0 0 .912.911L20.82 37.866a.644.644 0 0 0-.911-.911ZM18.046 34.178a.645.645 0 0 0-.912 0L6.837 44.477a.644.644 0 0 0 .912.911L18.046 35.09a.645.645 0 0 0 0-.912Z" fill="#2493EB"/></svg>