<svg width="56" height="56" fill="none" xmlns="http://www.w3.org/2000/svg"><path d="M47.096 20.344h-4.768V9.197a.674.674 0 0 0-.295-.536.64.64 0 0 0-.59-.082l-2.834 1.008V2.438a.713.713 0 0 0-.689-.688H18.083a.716.716 0 0 0-.692.688v14.68l-9.393 3.368a3.958 3.958 0 0 0-3.076 3.841v25.954a4.008 4.008 0 0 0 3.982 3.969h38.192a4.007 4.007 0 0 0 3.982-3.97V24.328a4.02 4.02 0 0 0-3.982-3.983Zm-8.487-9.365 2.407-.853v10.218h-2.407v-9.365ZM18.703 3.063h18.594v17.28h-1.313V9.826a.639.639 0 0 0-.604-.655c-1.446-.068-2.39-1.357-2.42-3.253a.665.665 0 0 0-.645-.667H23.69a.674.674 0 0 0-.657.666c-.031 1.927-.943 3.176-2.41 3.243a.65.65 0 0 0-.607.666v3.738a.656.656 0 0 0 1.312 0V10.4c1.64-.353 2.747-1.76 2.976-3.838h7.394c.247 2.296 1.552 3.51 2.974 3.833v9.948h-2.766c.126-.384.188-.785.184-1.19a4.089 4.089 0 1 0-8.18-.005c-.004.406.058.81.185 1.195h-2.767v-4.01a.656.656 0 1 0-1.312 0v4.01h-1.313V3.062Zm12.074 16.086c.006.415-.09.825-.279 1.195h-4.996a2.526 2.526 0 0 1-.279-1.19 2.777 2.777 0 1 1 5.554-.005Zm-13.386-.637v1.832h-5.197l5.197-1.832Zm32.375 11.675h-1.823a.656.656 0 1 0 0 1.313h1.823v11.594H41.73a3.665 3.665 0 0 1-3.669-3.703v-4.174a3.68 3.68 0 0 1 3.669-3.717h3.66a.656.656 0 1 0 0-1.313h-3.66a4.991 4.991 0 0 0-4.981 5.03v4.174a4.979 4.979 0 0 0 4.98 5.015h8.036v5.875a2.694 2.694 0 0 1-2.67 2.657H8.904a2.694 2.694 0 0 1-2.67-2.657V24.327a2.681 2.681 0 0 1 2.105-2.592c.185-.045.375-.071.565-.079h38.192a2.707 2.707 0 0 1 2.67 2.671v5.86Z" fill="#2E2E26"/><path d="M41.344 34.56a.656.656 0 0 0-.657.657v4.174a.656.656 0 1 0 1.313 0v-4.174a.656.656 0 0 0-.656-.657ZM44.625 34.56a.656.656 0 0 0-.656.657v4.174a.656.656 0 1 0 1.312 0v-4.174a.656.656 0 0 0-.656-.657Z" fill="#2493EB"/></svg>