<svg width="15" height="15" fill="none" xmlns="http://www.w3.org/2000/svg"><path d="M3.008 6.484c1.224 2.422 3.06 4.258 5.508 5.508l1.836-1.836c.234-.26.52-.325.859-.195a9.328 9.328 0 0 0 2.969.469.75.75 0 0 1 .547.234.74.74 0 0 1 .273.586v2.93c0 .208-.091.403-.273.586a.75.75 0 0 1-.547.234c-2.578 0-4.961-.625-7.149-1.875a14.39 14.39 0 0 1-5.156-5.156C.625 5.78 0 3.399 0 .82A.75.75 0 0 1 .234.273C.417.091.612 0 .82 0h2.93a.74.74 0 0 1 .586.273.75.75 0 0 1 .234.547c0 1.042.157 2.032.47 2.97.103.338.038.624-.196.858L3.008 6.484Z" fill="#fff"/></svg>