<svg aria-hidden="true" style="position: absolute; width: 0; height: 0; overflow: hidden;" version="1.1" xmlns="http://www.w3.org/2000/svg" xmlns:xlink="http://www.w3.org/1999/xlink">
<defs>
<symbol id="instagram" viewBox="0 0 32 32">
<path fill="none" opacity="0.1" stroke="#fff" style="stroke: var(--color1, #fff)" stroke-linejoin="miter" stroke-linecap="butt" stroke-miterlimit="4" stroke-width="0.8649" d="M31.568 16c0 8.598-6.97 15.568-15.568 15.568s-15.568-6.97-15.568-15.568c0-8.598 6.97-15.568 15.568-15.568s15.568 6.97 15.568 15.568z"></path>
<path fill="#fff" style="fill: var(--color1, #fff)" opacity="0.5" d="M21.040 13.271v-1.162c0-0.199-0.099-0.297-0.297-0.297h-1.135c-0.199 0-0.297 0.099-0.297 0.297v1.162c0 0.18 0.099 0.27 0.297 0.27h1.135c0.199 0 0.297-0.090 0.297-0.27zM12.094 21.054h8.649c0.199 0 0.297-0.099 0.297-0.297v-4.892h-1.216c0.035 0.216 0.054 0.405 0.054 0.567 0 0.955-0.343 1.775-1.027 2.46-0.667 0.666-1.478 1-2.433 1-0.015 0-0.033 0-0.051 0-0.941 0-1.793-0.382-2.409-1l-0-0c-0.618-0.616-1-1.468-1-2.409 0-0.018 0-0.036 0-0.053l-0 0.003c0-0.199 0.018-0.387 0.055-0.567h-1.189v4.892c0 0.199 0.090 0.297 0.27 0.297zM18.067 14.811c-0.408-0.417-0.976-0.676-1.605-0.676-0.015 0-0.031 0-0.046 0l0.002-0c-0.63 0-1.171 0.225-1.622 0.675-0.417 0.403-0.676 0.967-0.676 1.591 0 0.011 0 0.021 0 0.032l-0-0.002c0 0.631 0.225 1.171 0.675 1.622s0.991 0.675 1.622 0.675c0.649 0 1.199-0.225 1.648-0.675s0.676-0.991 0.676-1.622c0-0.631-0.225-1.171-0.676-1.622zM21.040 10.676c0.324 0 0.595 0.117 0.811 0.351 0.233 0.216 0.351 0.477 0.351 0.784v9.244c0 0.306-0.118 0.567-0.352 0.784-0.216 0.233-0.486 0.351-0.81 0.351h-9.216c-0.324 0-0.604-0.117-0.838-0.351-0.2-0.194-0.324-0.466-0.324-0.767 0-0.006 0-0.012 0-0.018v0.001-9.244c0-0.306 0.108-0.567 0.324-0.784 0.233-0.233 0.514-0.351 0.838-0.351h9.216z"></path>
</symbol>
<symbol id="icon-twitter" viewBox="0 0 32 32">
<path fill="none" stroke="#fff" style="stroke: var(--color1, #fff)" stroke-linejoin="miter" stroke-linecap="butt" stroke-miterlimit="4" stroke-width="0.8649" d="M31.568 16c0 8.598-6.97 15.568-15.568 15.568s-15.568-6.97-15.568-15.568c0-8.598 6.97-15.568 15.568-15.568s15.568 6.97 15.568 15.568z"></path>
<path fill="#fff" style="fill: var(--color1, #fff)" d="M20.73 14.081v0.297c-0.003 0.866-0.171 1.693-0.475 2.45l0.016-0.045c-0.312 0.822-0.742 1.53-1.278 2.144l0.007-0.008c-0.541 0.649-1.252 1.181-2.135 1.595-0.865 0.396-1.82 0.594-2.864 0.594-0.014 0-0.031 0-0.048 0-1.328 0-2.565-0.393-3.599-1.069l0.025 0.015c0.181 0.017 0.369 0.026 0.567 0.026 1.099 0 2.082-0.333 2.947-0.999-0.531-0.014-1.018-0.195-1.412-0.491l0.006 0.005c-0.38-0.289-0.664-0.687-0.807-1.146l-0.004-0.016c0.132 0.034 0.283 0.054 0.439 0.054 0.221 0 0.432-0.040 0.627-0.112l-0.012 0.004c-0.549-0.109-1.017-0.4-1.348-0.807l-0.003-0.004c-0.336-0.392-0.541-0.904-0.541-1.465 0-0.007 0-0.015 0-0.022v0.001-0.028c0.342 0.181 0.703 0.279 1.081 0.297-0.702-0.487-1.053-1.144-1.053-1.973 0-0.432 0.108-0.829 0.324-1.189 0.594 0.72 1.306 1.297 2.134 1.73 0.848 0.432 1.757 0.675 2.73 0.729-0.034-0.162-0.054-0.349-0.055-0.54v-0c0-0.649 0.225-1.198 0.676-1.648 0.468-0.468 1.027-0.702 1.675-0.702 0.685 0 1.261 0.243 1.73 0.73 0.57-0.115 1.077-0.312 1.537-0.581l-0.023 0.013c-0.18 0.559-0.555 1.013-1.043 1.291l-0.011 0.006c0.51-0.056 0.976-0.18 1.411-0.363l-0.033 0.012c-0.331 0.474-0.725 0.876-1.175 1.206l-0.014 0.010z"></path>
</symbol>
<symbol id="icon-balance" viewBox="0 0 32 32">
<path fill="#2493eb" style="fill: var(--color2, #2493eb)" d="M16 6.143c-0.008-0-0.018-0-0.027-0-0.715 0-1.295 0.58-1.295 1.295s0.58 1.295 1.295 1.295c0.010 0 0.019-0 0.029-0l-0.001 0c0.715 0 1.295-0.58 1.295-1.295s-0.58-1.295-1.295-1.295v0zM16 7.981c-0.301 0-0.545-0.244-0.545-0.545s0.244-0.545 0.545-0.545v0c0.301 0 0.545 0.244 0.545 0.545s-0.244 0.545-0.545 0.545v0z"></path>
<path fill="#2e2e26" style="fill: var(--color3, #2e2e26)" d="M31.483 19.625h-0.616l-3.931-9.393c0.888-0.161 1.619-0.719 2.015-1.479l0.007-0.016c0.056-0.11 0.145-0.197 0.254-0.249l0.003-0.001c0.342-0.162 0.574-0.505 0.574-0.902 0-0.55-0.445-0.995-0.995-0.995-0.153 0-0.297 0.034-0.427 0.096l0.006-0.003c-0.513 0.244-0.921 0.639-1.176 1.125l-0.007 0.014c-0.14 0.275-0.419 0.461-0.742 0.465h-0c-0.325-0.008-0.603-0.196-0.739-0.469l-0.002-0.005c-0.42-0.818-1.254-1.369-2.218-1.377h-5.175c-0.234-0.562-0.689-0.983-1.189-1.25v-2.636c-0.004-0.202-0.169-0.364-0.371-0.364-0.003 0-0.007 0-0.010 0h-1.488c-0.003-0-0.007-0-0.011-0-0.202 0-0.366 0.162-0.37 0.363v2.636c-0.5 0.267-0.954 0.688-1.189 1.251h-5.17c-0.964 0.007-1.798 0.557-2.212 1.36l-0.007 0.014c-0.137 0.281-0.42 0.471-0.747 0.471-0.325 0-0.606-0.187-0.742-0.459l-0.002-0.005c-0.262-0.499-0.67-0.892-1.166-1.129l-0.015-0.007c-0.118-0.053-0.255-0.084-0.4-0.084-0.55 0-0.996 0.446-0.996 0.996 0 0.389 0.224 0.727 0.549 0.89l0.006 0.003c0.111 0.053 0.2 0.139 0.255 0.245l0.001 0.003c0.404 0.775 1.136 1.333 2.006 1.492l0.017 0.003-3.931 9.394h-0.616c-0.001-0-0.003-0-0.005-0-0.208 0-0.378 0.164-0.387 0.371l-0 0.001v0.383c0 2.994 2.444 5.429 5.437 5.429s5.438-2.435 5.438-5.429v-0.383c-0.001-0.205-0.167-0.371-0.373-0.371-0.001 0-0.002 0-0.003 0h-0.616l-3.934-9.4c0.873-0.173 1.591-0.726 1.982-1.477l0.007-0.016c0.083-0.171 0.253-0.288 0.451-0.295l0.001-0h5.182c0.242 0.544 0.652 0.978 1.163 1.242l0.014 0.007v12.001h-0.301c-0.001 0-0.001 0-0.002 0-0.209 0-0.379 0.167-0.385 0.374v2.938h-2.173c-0.214 0.010-0.384 0.183-0.389 0.397v1.54h-1.511c-0.005-0-0.011-0-0.017-0-0.192 0-0.348 0.156-0.348 0.348 0 0.002 0 0.004 0 0.006v-0 2.159c-0 0.002-0 0.004-0 0.006 0 0.197 0.16 0.357 0.357 0.357 0.003 0 0.006-0 0.008-0h11.708c0.003 0 0.006 0 0.009 0 0.196 0 0.355-0.159 0.355-0.355 0-0.003-0-0.005-0-0.008v0-2.159c0-0.002 0-0.004 0-0.006 0-0.192-0.156-0.347-0.347-0.347-0.006 0-0.012 0-0.017 0l0.001-0h-1.449v-1.54c-0.005-0.215-0.175-0.388-0.388-0.398l-0.001-0h-2.173v-2.938c-0.006-0.208-0.176-0.375-0.385-0.375-0.001 0-0.001 0-0.002 0h-0.3v-12c0.525-0.272 0.935-0.705 1.171-1.234l0.006-0.016h5.186c0.199 0.007 0.369 0.125 0.451 0.294l0.001 0.003c0.398 0.765 1.113 1.318 1.967 1.487l0.018 0.003-3.934 9.4h-0.616c-0.001 0-0.002-0-0.003-0-0.205 0-0.372 0.166-0.372 0.371v0.383c0 2.994 2.444 5.429 5.438 5.429s5.437-2.435 5.437-5.429v-0.383c-0.009-0.207-0.179-0.371-0.387-0.371-0.002 0-0.003 0-0.005 0h0zM5.571 25.058c-1.977-0.003-3.667-1.23-4.353-2.964l-0.011-0.032h8.728c-0.696 1.766-2.386 2.993-4.364 2.996h-0zM10.25 20.375v0.005c-0.001 0.331-0.035 0.653-0.099 0.964l0.005-0.031h-9.17c-0.064-0.278-0.104-0.599-0.111-0.928l-0-0.005v-0.005h9.375zM9.195 19.625h-7.249l3.625-8.661 3.625 8.661zM8.517 7.688c-0.487 0.006-0.907 0.286-1.114 0.692l-0.003 0.007c-0.349 0.68-1.044 1.137-1.847 1.137-0.801 0-1.496-0.456-1.84-1.122l-0.005-0.012c-0.135-0.259-0.347-0.462-0.605-0.583l-0.008-0.003c-0.078-0.041-0.13-0.121-0.13-0.214 0-0.003 0-0.005 0-0.008v0c0-0.001 0-0.001 0-0.002 0-0.084 0.044-0.158 0.11-0.2l0.001-0.001c0.037-0.024 0.083-0.039 0.132-0.039 0.038 0 0.073 0.009 0.105 0.024l-0.001-0.001c0.36 0.172 0.647 0.449 0.826 0.791l0.005 0.010c0.265 0.52 0.796 0.87 1.409 0.87 0.617 0 1.151-0.354 1.41-0.87l0.004-0.009c0.293-0.574 0.877-0.961 1.552-0.969h4.982c-0.007 0.125-0.011 0.158-0.011 0.237 0 0.088 0.005 0.176 0.014 0.263h-4.983zM15.625 2.938h0.75v2.013c-0.113-0.017-0.243-0.027-0.375-0.027s-0.262 0.010-0.389 0.029l0.014-0.002v-2.013zM21.438 27.687v1.375h-10.938v-1.375h10.937zM19.625 25.75v1.187h-7.25v-1.187h7.25zM17.062 22.438v2.562h-2.125v-2.562h2.125zM15.625 21.687v-11.764c0.249 0.037 0.501 0.037 0.75 0v11.764h-0.75zM16 9.201c-0.974 0-1.764-0.79-1.764-1.764s0.79-1.764 1.764-1.764v0c0.974 0 1.764 0.79 1.764 1.764s-0.79 1.764-1.764 1.764v0zM24.607 8.389c-0.21-0.415-0.631-0.695-1.117-0.702h-4.989c0.010-0.087 0.014-0.175 0.014-0.263 0-0.078-0.004-0.111-0.011-0.237h4.986c0.677 0.008 1.26 0.397 1.549 0.961l0.005 0.010c0.263 0.523 0.795 0.875 1.409 0.875 0.612 0 1.142-0.349 1.402-0.859l0.004-0.009c0.184-0.353 0.472-0.63 0.822-0.798l0.011-0.005c0.031-0.015 0.067-0.024 0.105-0.024 0.091 0 0.171 0.051 0.212 0.125l0.001 0.001c0.018 0.033 0.029 0.072 0.029 0.113 0 0.001 0 0.002 0 0.003v-0c0 0.002 0 0.005 0 0.008 0 0.093-0.052 0.174-0.129 0.215l-0.001 0.001c-0.265 0.122-0.48 0.329-0.613 0.589-0.347 0.678-1.041 1.135-1.842 1.135-0.802 0-1.497-0.458-1.838-1.127l-0.005-0.012zM26.429 10.965l3.625 8.661h-7.249l3.625-8.661zM26.429 25.058c-1.977-0.003-3.668-1.23-4.353-2.964l-0.011-0.032h8.728c-0.696 1.766-2.386 2.993-4.364 2.996h-0zM31.125 20.379c-0.007 0.334-0.047 0.655-0.117 0.965l0.006-0.032h-9.17c-0.059-0.28-0.093-0.603-0.094-0.933v-0.005l9.375 0.005z"></path>
</symbol>
<symbol id="icon-document" viewBox="0 0 32 32">
<path fill="#2493eb" style="fill: var(--color2, #2493eb)" d="M3 11.035c-0.207 0-0.375 0.168-0.375 0.375v0 6.985c0 0.207 0.168 0.375 0.375 0.375s0.375-0.168 0.375-0.375v-6.985c0-0.207-0.168-0.375-0.375-0.375v0zM3 9.562c-0.207 0-0.375 0.168-0.375 0.375v0 0.305c0 0.207 0.168 0.375 0.375 0.375s0.375-0.168 0.375-0.375v-0.305c0-0.207-0.168-0.375-0.375-0.375v0z"></path>
<path fill="#2e2e26" style="fill: var(--color3, #2e2e26)" d="M27.909 4.75h-1.945c-0.221 0.001-0.4 0.18-0.401 0.4v2.724h-13.853l-1.583-1.583c-0.623-0.622-1.059-1.429-1.219-2.333l-0.004-0.026c-0.136-0.805-0.531-1.5-1.096-2.011l-0.003-0.003c-1.030-0.941-2.578-1.175-3.857-0.585-0.135 0.059-0.227 0.191-0.227 0.345 0 0.104 0.042 0.197 0.11 0.265l1.736 1.735-0.971 0.97-1.731-1.731c-0.068-0.071-0.164-0.115-0.271-0.115-0.149 0-0.278 0.087-0.338 0.212l-0.001 0.002c-0.206 0.435-0.327 0.945-0.327 1.483 0 1.582 1.042 2.921 2.477 3.368l0.025 0.007h-3.367c-0.004-0-0.010-0-0.015-0-0.198 0-0.359 0.16-0.36 0.358v20.61c0 0.099 0.043 0.188 0.11 0.25l0 0c0.064 0.059 0.149 0.094 0.243 0.094 0.008 0 0.015-0 0.022-0.001l0 0 1.624 0.008v1.421c0.009 0.212 0.182 0.381 0.395 0.383h17.363c0.204-0.004 0.368-0.171 0.368-0.375 0-0.003-0-0.006-0-0.009v0-1.441l6.892-0.019c1.993-0.011 3.604-1.628 3.608-3.621v-17.39c-0.003-1.875-1.523-3.395-3.399-3.395-0.002 0-0.003 0-0.005 0h0zM20.062 30.249h-0.812v-0.467c0-0.207-0.168-0.375-0.375-0.375s-0.375 0.168-0.375 0.375v0 0.467h-1.625v-0.467c0-0.207-0.168-0.375-0.375-0.375s-0.375 0.168-0.375 0.375v0 0.467h-1.625v-0.467c0-0.207-0.168-0.375-0.375-0.375s-0.375 0.168-0.375 0.375v0 0.467h-1.562v-0.467c0-0.207-0.168-0.375-0.375-0.375s-0.375 0.168-0.375 0.375v0 0.467h-1.625v-0.467c0-0.207-0.168-0.375-0.375-0.375s-0.375 0.168-0.375 0.375v0 0.467h-1.625v-0.467c-0.008-0.201-0.173-0.361-0.375-0.361s-0.367 0.16-0.375 0.36l-0 0.001v0.467h-1.625v-0.467c0-0.207-0.168-0.375-0.375-0.375s-0.375 0.168-0.375 0.375v0 0.467h-0.875v-2.249h1.193c0.003 0 0.007 0 0.011 0 0.099 0 0.189-0.039 0.255-0.103l-0 0 0.019-0.015c0.067-0.067 0.109-0.16 0.109-0.263v0c0-0.003 0-0.006 0-0.009 0-1.24 0.335-2.403 0.919-3.401l-0.017 0.032 0.396 0.231c0.057 0.037 0.128 0.060 0.203 0.060 0.207 0 0.375-0.168 0.375-0.375 0-0.144-0.081-0.269-0.2-0.332l-0.002-0.001-0.362-0.21c0.507-0.686 1.12-1.26 1.821-1.709l0.027-0.016 0.237 0.412c0.068 0.104 0.184 0.172 0.315 0.172 0.207 0 0.375-0.168 0.375-0.375 0-0.062-0.015-0.121-0.042-0.173l0.001 0.002-0.23-0.403c0.739-0.372 1.603-0.61 2.518-0.659l0.016-0.001v0.446c0.001 0.207 0.169 0.373 0.376 0.373 0.103 0 0.196-0.041 0.264-0.109l-0 0c0.068-0.068 0.11-0.161 0.11-0.265v-0.449c0.942 0.048 1.818 0.287 2.604 0.679l-0.038-0.017-0.232 0.403c-0.037 0.057-0.058 0.126-0.058 0.201 0 0.207 0.168 0.375 0.375 0.375 0.144 0 0.269-0.081 0.332-0.199l0.001-0.002 0.237-0.412c0.745 0.476 1.371 1.067 1.871 1.756l0.014 0.020-0.398 0.232c-0.112 0.066-0.187 0.186-0.187 0.324 0 0.207 0.168 0.375 0.375 0.375 0.069 0 0.134-0.019 0.19-0.052l-0.002 0.001 0.426-0.247c0.548 0.954 0.871 2.098 0.871 3.317 0 0.003 0 0.006 0 0.009v-0c0 0.099 0.039 0.194 0.109 0.265l0.019 0.011c0.066 0.063 0.156 0.102 0.255 0.102 0.004 0 0.007-0 0.011-0h1.164v2.25zM30.563 23.329c-0.664-0.85-1.689-1.392-2.84-1.392-0.010 0-0.021 0-0.031 0h-1.379v-9.562c0-0.004 0-0.009 0-0.014 0-0.207-0.168-0.375-0.375-0.375s-0.375 0.168-0.375 0.375c0 0.005 0 0.010 0 0.015l-0-0.001v9.913c0.001 0.22 0.179 0.398 0.399 0.399h1.731c0.001 0 0.002 0 0.003 0 1.581 0 2.863 1.282 2.863 2.863 0 0.788-0.319 1.502-0.834 2.020l0-0c-0.517 0.519-1.232 0.84-2.022 0.841l-6.89 0.015v-0.785c0-0.003 0-0.006 0-0.009 0-0.206-0.163-0.374-0.367-0.382l-0.001-0h-1.199c-0.186-3.937-3.47-7.164-7.481-7.164s-7.296 3.226-7.482 7.164h-1.2c-0.214 0.006-0.387 0.177-0.395 0.39l-0 0.001v0.817l-1.25 0.009v-19.842h5.048c0.259 0.167 0.5 0.362 0.718 0.579l5.096 5.096c0.066 0.060 0.155 0.097 0.252 0.097 0.207 0 0.375-0.168 0.375-0.375 0-0.097-0.037-0.185-0.097-0.252l0 0-5.096-5.097c-0.738-0.734-1.694-1.25-2.762-1.442l-0.032-0.005c-0.572-0.107-1.069-0.379-1.451-0.765l-0-0c-0.503-0.503-0.814-1.197-0.814-1.964 0-0.225 0.027-0.444 0.078-0.654l-0.004 0.019 1.582 1.582c0.068 0.068 0.162 0.11 0.265 0.11s0.197-0.042 0.265-0.11v0l1.501-1.5c0.068-0.068 0.11-0.162 0.11-0.266s-0.042-0.197-0.109-0.265l-1.578-1.578c0.195-0.049 0.419-0.077 0.65-0.077 0.718 0 1.373 0.271 1.868 0.716l-0.003-0.002c0.446 0.404 0.758 0.95 0.862 1.566l0.002 0.016c0.191 1.091 0.702 2.038 1.432 2.767l8.27 8.27c0.741 0.732 1.7 1.245 2.77 1.434l0.032 0.005c0.575 0.103 1.074 0.373 1.46 0.757l-0-0c0.498 0.501 0.805 1.192 0.805 1.955 0 0.235-0.029 0.464-0.084 0.682l0.004-0.019-1.515-1.515c-0.068-0.068-0.162-0.11-0.265-0.11s-0.197 0.042-0.265 0.11v0l-1.5 1.5c-0.069 0.066-0.111 0.159-0.111 0.262 0 0.021 0.002 0.042 0.005 0.063l-0-0.002c0.012 0.079 0.049 0.152 0.105 0.208l1.51 1.51c-0.191 0.046-0.41 0.073-0.635 0.073-0.721 0-1.377-0.272-1.873-0.72l0.002 0.002c-0.444-0.407-0.753-0.956-0.854-1.575l-0.002-0.016c-0.169-1.020-0.67-1.971-1.45-2.75l-1.317-1.318c-0.068-0.068-0.162-0.11-0.265-0.11-0.207 0-0.375 0.168-0.375 0.375 0 0.104 0.042 0.197 0.11 0.265l1.317 1.317c0.668 0.668 1.097 1.479 1.24 2.342 0.278 1.679 1.719 2.943 3.456 2.943 0.001 0 0.001 0 0.002 0h-0c0.511-0.001 1.017-0.112 1.481-0.327 0.135-0.059 0.227-0.191 0.227-0.345 0-0.103-0.042-0.197-0.11-0.265v0l-1.667-1.667 0.971-0.971 1.668 1.669c0.068 0.068 0.162 0.11 0.265 0.11 0.152 0 0.282-0.090 0.341-0.219l0.001-0.002c0.211-0.439 0.334-0.954 0.334-1.499 0-0.97-0.391-1.849-1.024-2.487l0 0c-0.49-0.489-1.126-0.832-1.836-0.961l-0.021-0.003c-0.946-0.165-1.769-0.604-2.406-1.231l-5.935-5.936h13.102v1.126c0 0.207 0.168 0.375 0.375 0.375s0.375-0.168 0.375-0.375v0-4.25h1.596c0.002 0 0.004 0 0.006 0 1.461 0 2.646 1.183 2.648 2.644v15.185z"></path>
<path fill="#2493eb" style="fill: var(--color2, #2493eb)" d="M16.393 16.335c0 0 0 0 0 0 0.503 0 0.911-0.408 0.911-0.911 0-0.252-0.102-0.479-0.267-0.644l-7.145-7.144c-0.165-0.165-0.393-0.267-0.645-0.267-0.503 0-0.912 0.408-0.912 0.912 0 0.252 0.102 0.479 0.267 0.644l7.145 7.145c0.165 0.165 0.392 0.266 0.643 0.266 0 0 0.001 0 0.001 0h-0zM9.133 8.164c0.029-0.029 0.070-0.047 0.114-0.047s0.085 0.018 0.114 0.047v0l7.146 7.146c0.032 0.030 0.052 0.072 0.052 0.119 0 0.089-0.072 0.162-0.162 0.162-0.047 0-0.089-0.020-0.119-0.052l-0-0-7.145-7.145c-0.029-0.029-0.047-0.070-0.047-0.114s0.018-0.085 0.047-0.114v0zM11.782 23.457c-2.296 0.006-4.155 1.869-4.157 4.165v0.018c-0 0.002-0 0.004-0 0.007 0 0.195 0.158 0.353 0.353 0.353 0.004 0 0.008-0 0.012-0l-0.001 0h7.549c0.207 0 0.399-0.152 0.399-0.359v-0.019c-0.001-2.297-1.86-4.159-4.155-4.166h-0.001zM8.383 27.25c0.178-1.687 1.626-3.059 3.382-3.059s3.203 1.372 3.381 3.059h-6.762z"></path>
</symbol>
<symbol id="icon-Ellipse" viewBox="0 0 32 32">
<path fill="none" opacity="0.1" stroke="#fff" style="stroke: var(--color1, #fff)" stroke-linejoin="miter" stroke-linecap="butt" stroke-miterlimit="4" stroke-width="0.8649" d="M31.568 16c0 8.598-6.97 15.568-15.568 15.568s-15.568-6.97-15.568-15.568c0-8.598 6.97-15.568 15.568-15.568s15.568 6.97 15.568 15.568z"></path>
</symbol>
<symbol id="icon-entrepreneur" viewBox="0 0 32 32">
<path fill="#2e2e26" style="fill: var(--color3, #2e2e26)" d="M13.537 21.018c-0.011-0.006-0.025-0.011-0.039-0.016l-0.003-0.001-2.058-0.742v-0.76c0-0 0-0 0-0.001 0-0.155-0.094-0.288-0.228-0.344l-0.002-0.001 0.012-0-1.156-0.481v-0.12c1.88-0.802 3.196-2.591 3.304-4.698l0.001-0.013c0.624-0.244 1.058-0.84 1.058-1.538 0-0.144-0.018-0.283-0.053-0.416l0.003 0.011c-0.107-0.434-0.417-0.778-0.82-0.932l-0.009-0.003 0.097-1.415c0.009-0.118 0.014-0.256 0.014-0.395 0-3.147-2.552-5.699-5.699-5.699s-5.699 2.552-5.699 5.699c0 0.139 0.005 0.277 0.015 0.413l-0.001-0.018 0.098 1.413c-0.414 0.156-0.725 0.501-0.829 0.927l-0.002 0.009c-0.030 0.118-0.047 0.254-0.047 0.393 0 0 0 0.001 0 0.001v-0c-0 0.005-0 0.011-0 0.017 0 0.695 0.432 1.288 1.041 1.528l0.011 0.004c0.114 2.129 1.44 3.922 3.297 4.709l0.035 0.013v0.1l-1.158 0.483 0.008 0.005c-0.133 0.058-0.225 0.189-0.225 0.341 0 0.002 0 0.004 0 0.006v-0 0.759l-2.058 0.742c-0.017 0.006-0.030 0.012-0.043 0.019l0.002-0.001c-0.938 0.477-1.593 1.393-1.696 2.469l-0.001 0.012c-0 0.010-0.017 0.020-0.017 0.031v3.78c0 0.207 0.199 0.376 0.406 0.376h5.138l1.48 1.973c0.069 0.091 0.178 0.149 0.3 0.149s0.231-0.058 0.299-0.148l0.001-0.001 1.48-1.972h5.053c0.207 0 0.343-0.17 0.343-0.376v-3.779c0-0.011 0.015-0.021 0.015-0.032-0.090-1.086-0.735-2.003-1.648-2.474l-0.017-0.008zM11.5 23.532v3.406h-1.64l-0.775-4.178 0.223 0.149c0.058 0.039 0.13 0.063 0.208 0.063 0.122 0 0.231-0.059 0.299-0.149l0.001-0.001 1.387-1.85 1.342 0.484c-0.578 0.509-0.963 1.226-1.038 2.033l-0.001 0.012c-0.001 0.011-0.007 0.021-0.007 0.032zM4.437 26.937v-3.406c0-0.010 0.001-0.020 0-0.031-0.073-0.82-0.457-1.539-1.033-2.046l-0.003-0.003 1.332-0.481 1.388 1.85c0.069 0.091 0.178 0.15 0.3 0.15 0.078 0 0.15-0.024 0.21-0.064l-0.001 0.001 0.322-0.213-0.789 4.243h-1.725zM5.25 20.2l2.044 1.364-0.784 0.523-1.26-1.68v-0.207zM6.625 20.236v-1.423c0.435 0.105 0.881 0.158 1.329 0.159 0.458-0 0.914-0.057 1.359-0.168v1.429l-1.346 0.881-1.341-0.878zM8.644 21.564l2.044-1.363v0.206l-1.26 1.681-0.784-0.524zM10.294 19.578l-0.231 0.154v-0.249l0.231 0.095zM4.339 5.783c0.906-0.968 2.191-1.571 3.617-1.571 2.733 0 4.948 2.215 4.948 4.948 0 0.12-0.004 0.238-0.013 0.355l0.001-0.016-0.116 1.692c-0.001 0.010-0.003 0.020-0.005 0.029l0-0.001-0.63-2.596c-0.005-0.023-0.012-0.042-0.020-0.061l0.001 0.002c-0.374-0.855-1.193-1.451-2.156-1.498l-0.006-0-0.491-0.022c-0.005-0-0.010-0-0.016-0-0.126 0-0.237 0.062-0.305 0.157l-0.001 0.001c-0.825 1.148-2.156 1.888-3.661 1.888-0.168 0-0.335-0.009-0.498-0.027l0.020 0.002-0.826-0.089c-0.019-0.002-0.041-0.003-0.063-0.003-0.305 0-0.555 0.235-0.579 0.533l-0 0.002-0.142 1.776c-0.145-0.051-0.227-0.083-0.31-0.116l0.060 0.021c-0.008-0.007-0.014-0.017-0.015-0.029v-0l-0.115-1.661c-0.008-0.107-0.013-0.232-0.013-0.358 0-1.301 0.507-2.484 1.335-3.361l-0.002 0.002zM3.313 13.564v-0.008c-0.003-0.185-0.138-0.338-0.315-0.368l-0.002-0c-0.43-0.080-0.752-0.452-0.752-0.9 0-0.074 0.009-0.146 0.026-0.215l-0.001 0.006c0.041-0.177 0.159-0.32 0.317-0.392l0.004-0.001c0.071 0.079 0.156 0.143 0.252 0.188l0.005 0.002c0.821 0.329 0.937 0.296 1.085 0.204 0.102-0.064 0.171-0.171 0.181-0.295l0-0.001 0.163-2.043 0.654 0.071c0.167 0.019 0.361 0.030 0.557 0.030 1.683 0 3.182-0.793 4.142-2.025l0.009-0.012 0.293 0.013c0.664 0.032 1.226 0.435 1.488 1.005l0.004 0.011 0.779 3.211c0.042 0.165 0.189 0.286 0.365 0.286 0.099 0 0.188-0.038 0.255-0.1l-0 0 0.424-0.396c0.042-0.039 0.079-0.081 0.113-0.127l0.002-0.003c0.143 0.078 0.248 0.212 0.285 0.371l0.001 0.004c0.017 0.071 0.025 0.143 0.025 0.216 0 0.002 0 0.005 0 0.007 0 0.44-0.317 0.807-0.735 0.884l-0.006 0.001c-0.174 0.032-0.304 0.183-0.304 0.364 0 0.002 0 0.004 0 0.006v-0 0.008c0 2.572-2.085 4.656-4.656 4.656s-4.656-2.085-4.656-4.656v0zM5.875 19.736l-0.24-0.16 0.24-0.099v0.259zM1.437 23.548c0.125-0.732 0.5-1.395 1.125-1.772 0.621 0.375 1.048 1.016 1.125 1.762l0.001 0.010v3.389h-2.25v-3.389zM8.012 28.809l-1.149-1.533 0.96-5.164 0.147-0.098 0.246 0.164 0.946 5.098-1.149 1.533zM14.437 26.937h-2.187v-3.389c0.067-0.75 0.484-1.39 1.084-1.762l0.010-0.006c0.61 0.378 1.027 1.018 1.093 1.759l0.001 0.009v3.389z"></path>
<path fill="#2493eb" style="fill: var(--color2, #2493eb)" d="M24.032 6.727c-0.759 0-1.374 0.615-1.374 1.374s0.615 1.374 1.374 1.374v0c0.759 0 1.374-0.615 1.374-1.374s-0.615-1.374-1.374-1.374v0zM24.032 8.724c-0.005 0-0.012 0-0.018 0-0.345 0-0.624-0.279-0.624-0.624s0.279-0.624 0.624-0.624c0.006 0 0.012 0 0.019 0l-0.001-0c0.337 0.010 0.606 0.285 0.606 0.624s-0.269 0.614-0.605 0.623l-0.001 0zM20.537 6.727c-0.759 0-1.374 0.615-1.374 1.374s0.615 1.374 1.374 1.374v0c0.759 0 1.374-0.615 1.374-1.374s-0.615-1.374-1.374-1.374v0zM20.537 8.724c-0.005 0-0.012 0-0.018 0-0.345 0-0.624-0.279-0.624-0.624s0.279-0.624 0.624-0.624c0.006 0 0.012 0 0.019 0l-0.001-0c0.337 0.010 0.606 0.285 0.606 0.624s-0.269 0.614-0.605 0.623l-0.001 0zM27.526 6.727c-0.759 0-1.374 0.615-1.374 1.374s0.615 1.374 1.374 1.374v0c0.759 0 1.374-0.615 1.374-1.374s-0.615-1.374-1.374-1.374v0zM27.526 8.724c-0.005 0-0.012 0-0.018 0-0.345 0-0.624-0.279-0.624-0.624s0.279-0.624 0.624-0.624c0.006 0 0.012 0 0.019 0l-0.001-0c0.337 0.010 0.606 0.285 0.606 0.624s-0.269 0.614-0.605 0.623l-0.001 0z"></path>
<path fill="#2e2e26" style="fill: var(--color3, #2e2e26)" d="M29.095 3.866c-1.36-1.080-3.158-1.675-5.064-1.675s-3.704 0.595-5.064 1.675c-1.41 1.12-2.186 2.623-2.186 4.235 0 1.588 0.755 3.072 2.127 4.187l-0.103 2.626c-0 0.005-0 0.010-0 0.015 0 0.207 0.168 0.374 0.374 0.374 0.053 0 0.103-0.011 0.149-0.031l-0.002 0.001 3.263-1.384c0.475 0.076 0.955 0.113 1.436 0.111h0.007c1.905 0 3.704-0.59 5.064-1.67 1.41-1.12 2.186-2.621 2.186-4.232s-0.776-3.112-2.186-4.232zM28.629 11.743c-1.228 0.975-2.861 1.507-4.597 1.507h-0.007c-0.007 0-0.015 0-0.024 0-0.492 0-0.974-0.043-1.442-0.126l0.049 0.007c-0.018-0.003-0.039-0.005-0.061-0.005-0.054 0-0.106 0.012-0.153 0.032l0.002-0.001-2.82 1.194 0.087-2.226c0-0.004 0-0.009 0-0.014 0-0.121-0.057-0.228-0.146-0.297l-0.001-0.001-0.011-0.008c-0.025-0.019-0.050-0.038-0.074-0.058-1.227-0.974-1.902-2.269-1.902-3.647s0.676-2.673 1.902-3.647c1.227-0.975 2.861-1.513 4.598-1.513s3.37 0.537 4.597 1.512c1.228 0.975 1.903 2.267 1.903 3.645s-0.676 2.67-1.902 3.645z"></path>
</symbol>
<symbol id="icon-hand-shake-1" viewBox="0 0 32 32">
<path fill="#2493eb" style="fill: var(--color2, #2493eb)" d="M10.999 10.102h4.345c0.207 0 0.375-0.168 0.375-0.375s-0.168-0.375-0.375-0.375h-4.345c-0.207 0-0.375 0.168-0.375 0.375s0.168 0.375 0.375 0.375v0zM18.657 13.931h1.183c0.207 0 0.375-0.168 0.375-0.375s-0.168-0.375-0.375-0.375h-1.183c-0.207 0-0.375 0.168-0.375 0.375s0.168 0.375 0.375 0.375v0zM10.999 12.385h4.345c0.207 0 0.375-0.168 0.375-0.375s-0.168-0.375-0.375-0.375h-4.345c-0.207 0-0.375 0.168-0.375 0.375s0.168 0.375 0.375 0.375v0zM18.657 11.694h2.802c0.207 0 0.375-0.168 0.375-0.375s-0.168-0.375-0.375-0.375h-2.802c-0.207 0-0.375 0.168-0.375 0.375s0.168 0.375 0.375 0.375v0zM18.657 9.459h2.802c0.207 0 0.375-0.168 0.375-0.375s-0.168-0.375-0.375-0.375v0h-2.802c-0.207 0-0.375 0.168-0.375 0.375s0.168 0.375 0.375 0.375v0zM10.999 7.82h4.345c0.207 0 0.375-0.168 0.375-0.375s-0.168-0.375-0.375-0.375v0h-4.345c-0.207 0-0.375 0.168-0.375 0.375s0.168 0.375 0.375 0.375v0z"></path>
<path fill="#2e2e26" style="fill: var(--color3, #2e2e26)" d="M24.063 12.296c-0.138-0.287-0.42-0.485-0.749-0.501l-0.002-0v-4.974c0-0.207-0.168-0.375-0.375-0.375v0h-5.281v-1.566c0-0.207-0.168-0.375-0.375-0.375v0h-0.782v-1.88c0-0.207-0.168-0.375-0.375-0.375v0h-2.326v-1.233c0-0.207-0.168-0.375-0.375-0.375s-0.375 0.168-0.375 0.375v0 1.233h-2.826c-0.207 0-0.375 0.168-0.375 0.375v1.88h-0.782c-0.207 0-0.375 0.168-0.375 0.375v0 7.15l-0.026 0.006c-0.237 0.068-0.428 0.226-0.539 0.433l-0.002 0.005-4.677 8.956c-0.063 0.118-0.101 0.258-0.101 0.407 0 0.325 0.178 0.609 0.443 0.759l0.004 0.002 1.737 0.979c0.123 0.071 0.271 0.113 0.429 0.113 0.089 0 0.174-0.013 0.255-0.038l-0.006 0.002c0.231-0.069 0.417-0.224 0.525-0.427l0.002-0.005 0.251-0.476 0.737 0.615-1.103 1.531c-0.178 0.245-0.285 0.553-0.285 0.885 0 0.504 0.246 0.951 0.625 1.226l0.004 0.003 0.003 0.002c0.244 0.179 0.551 0.286 0.883 0.286 0.122 0 0.241-0.015 0.355-0.042l-0.010 0.002c0.042 0.448 0.274 0.834 0.614 1.081l0.004 0.003 0.003 0.002 0.004 0.003c0.244 0.179 0.551 0.286 0.882 0.286 0.122 0 0.241-0.015 0.355-0.042l-0.010 0.002c0.042 0.449 0.277 0.837 0.619 1.084l0.004 0.003 0.002 0.002c0.244 0.178 0.551 0.285 0.882 0.285 0.122 0 0.241-0.015 0.355-0.042l-0.010 0.002c0.042 0.45 0.277 0.838 0.619 1.085l0.004 0.003 0.002 0.002c0.244 0.179 0.551 0.286 0.882 0.286 0.087 0 0.172-0.007 0.254-0.021l-0.009 0.001c0.409-0.067 0.755-0.291 0.983-0.606l0.003-0.004 0.382-0.53 0.688 0.55c0.281 0.243 0.65 0.391 1.054 0.391 0.043 0 0.086-0.002 0.128-0.005l-0.006 0c0.809-0.061 1.45-0.705 1.504-1.511l0-0.005c0.167 0.064 0.36 0.101 0.561 0.101 0.043 0 0.085-0.002 0.127-0.005l-0.006 0c0.809-0.061 1.45-0.705 1.505-1.51l0-0.005c0.168 0.064 0.361 0.101 0.564 0.101 0.842 0 1.535-0.64 1.618-1.46l0.001-0.007c0.201 0.097 0.437 0.154 0.686 0.154 0.043 0 0.086-0.002 0.129-0.005l-0.006 0c0.448-0.034 0.841-0.244 1.114-0.562l0.002-0.002 0.020-0.023c0.24-0.277 0.387-0.641 0.387-1.040 0-0.48-0.213-0.911-0.549-1.202l-0.002-0.002-0.467-0.403c0.327-0.21 0.607-0.46 0.842-0.748l0.005-0.006c0.145 0.292 0.441 0.49 0.783 0.49 0.126 0 0.246-0.027 0.355-0.075l-0.006 0.002 1.829-0.793c0.313-0.138 0.528-0.445 0.528-0.803 0-0.135-0.031-0.263-0.085-0.377l0.002 0.005-4.26-9.086zM22.562 7.196v4.811l-1.491 0.587c-0.327 0.131-0.554 0.446-0.554 0.814 0 0.136 0.031 0.264 0.086 0.379l-0.002-0.005 0.249 0.527-0.147 0.063c-0.701 0.146-1.189 0.126-1.912-0.077l-1.134-0.319v-6.779h4.907zM10.596 3h5.152v1.505h-5.152v-1.505zM16.906 5.255v8.511c-0.194-0.049-0.417-0.078-0.647-0.078-0.296 0-0.58 0.047-0.847 0.134l0.019-0.005-1.725 0.546c-0.368 0.118-0.685 0.299-0.957 0.532l0.004-0.003c-0.332-0.106-0.715-0.167-1.111-0.167-0.163 0-0.324 0.010-0.482 0.031l0.019-0.002 0.22-0.418c0.063-0.118 0.1-0.258 0.1-0.406 0-0.315-0.166-0.591-0.416-0.746l-0.004-0.002-1.639-0.998v-6.928h7.467zM6.067 22.871c-0.022 0.040-0.063 0.067-0.111 0.067-0.005 0-0.009-0-0.014-0.001l0.001 0c-0.018-0.002-0.034-0.007-0.049-0.015l0.001 0-1.737-0.979c-0.038-0.022-0.064-0.062-0.064-0.109 0-0.021 0.005-0.041 0.015-0.059l-0 0.001 4.677-8.955c0.021-0.040 0.063-0.067 0.111-0.067 0.024 0 0.047 0.007 0.066 0.019l-0.001-0 1.726 1.050c0.036 0.022 0.060 0.062 0.060 0.107 0 0.021-0.005 0.042-0.015 0.059l0-0.001-4.666 8.884zM8.468 26.225c-0.14 0.194-0.366 0.318-0.62 0.318-0.168 0-0.323-0.054-0.45-0.146l0.002 0.002-0.003-0.002c-0.193-0.141-0.317-0.366-0.317-0.621 0-0.168 0.054-0.323 0.146-0.449l-0.002 0.002 1.724-2.393c0.117-0.161 0.292-0.274 0.494-0.307l0.004-0.001c0.036-0.006 0.078-0.009 0.12-0.009 0.424 0 0.768 0.344 0.768 0.768 0 0.167-0.053 0.322-0.144 0.448l0.002-0.002-1.724 2.393zM10.321 27.559c-0.141 0.193-0.366 0.318-0.621 0.318-0.167 0-0.322-0.054-0.448-0.145l0.002 0.002c-0.001-0.001-0.003-0.003-0.004-0.003-0.194-0.14-0.318-0.366-0.318-0.621 0-0.168 0.054-0.324 0.146-0.45l-0.002 0.002 1.251-1.736c0.141-0.194 0.367-0.318 0.622-0.318 0.423 0 0.767 0.343 0.767 0.767 0 0.168-0.054 0.324-0.146 0.451l0.002-0.002-1.25 1.735zM12.173 28.893c-0.141 0.193-0.366 0.317-0.621 0.317-0.168 0-0.323-0.054-0.449-0.145l-0-0c-0.193-0.141-0.318-0.366-0.318-0.62 0-0.168 0.054-0.323 0.146-0.449l-0.002 0.002 0.863-1.198c0.139-0.193 0.364-0.318 0.618-0.318 0.001 0 0.003 0 0.004 0h-0c0.423 0.001 0.766 0.344 0.766 0.767 0 0.168-0.054 0.323-0.145 0.449l0.002-0.002-0.863 1.198zM14.5 29.568l-0.475 0.66c-0.141 0.193-0.366 0.318-0.62 0.318-0.168 0-0.323-0.054-0.449-0.146l0.002 0.002-0.003-0.001c-0.193-0.141-0.318-0.366-0.318-0.62 0-0.168 0.054-0.323 0.146-0.449l-0.002 0.002 0.475-0.66c0.14-0.193 0.365-0.318 0.619-0.318 0.001 0 0.003 0 0.004 0h-0c0.159-0.001 0.313 0.049 0.442 0.142l0.006 0.004c0.194 0.14 0.318 0.366 0.318 0.621 0 0.168-0.054 0.323-0.146 0.449l0.002-0.002zM24.334 25.231c0.002 0.019 0.002 0.041 0.002 0.063 0 0.21-0.077 0.402-0.205 0.548l0.001-0.001-0.020 0.023c-0.163 0.189-0.402 0.308-0.67 0.308-0.098 0-0.192-0.016-0.281-0.046l0.006 0.002c-0.115-0.039-0.214-0.096-0.299-0.17l0.001 0.001-0.667-0.576-0.005-0.005-1.772-1.531c-0.065-0.057-0.151-0.091-0.245-0.091-0.207 0-0.375 0.168-0.375 0.375 0 0.113 0.050 0.215 0.129 0.283l0 0s0.903 0.779 1.776 1.534c0.176 0.161 0.286 0.391 0.286 0.648 0 0.484-0.393 0.877-0.877 0.877-0.213 0-0.408-0.076-0.56-0.202l0.001 0.001-1.773-1.531c-0.065-0.055-0.15-0.089-0.242-0.089-0.207 0-0.375 0.168-0.375 0.375 0 0.112 0.049 0.212 0.127 0.281l0 0 1.222 1.056c0.186 0.162 0.304 0.399 0.304 0.664 0 0.22-0.081 0.42-0.214 0.574l0.001-0.001c-0.162 0.187-0.399 0.304-0.664 0.304-0.22 0-0.421-0.081-0.575-0.215l0.001 0.001-1.222-1.056c-0.065-0.056-0.151-0.090-0.245-0.090-0.135 0-0.253 0.071-0.32 0.178l-0.001 0.002c-0.034 0.056-0.055 0.123-0.055 0.195 0 0.113 0.050 0.214 0.129 0.283l0 0 0.673 0.581c0.187 0.162 0.305 0.399 0.305 0.665 0 0.484-0.393 0.877-0.877 0.877-0.225 0-0.431-0.085-0.586-0.225l0.001 0.001-0.819-0.654c0.023-0.099 0.036-0.212 0.036-0.329 0-0.503-0.245-0.949-0.622-1.225l-0.004-0.003-0.006-0.004c-0.242-0.177-0.546-0.284-0.874-0.286h-0c0.026-0.106 0.041-0.227 0.041-0.353 0-0.834-0.673-1.512-1.505-1.519h-0.001c0.027-0.107 0.042-0.229 0.042-0.355 0-0.817-0.645-1.482-1.453-1.515l-0.003-0c0.049-0.143 0.077-0.307 0.077-0.478 0-0.837-0.679-1.516-1.516-1.516-0.505 0-0.952 0.247-1.227 0.626l-0.003 0.004-0.181 0.252-0.82-0.684 3.398-6.47c0.48-0.13 0.981-0.154 1.471-0.070-0.078 0.125-0.146 0.255-0.203 0.391l-0.527 1.285c-0.1 0.227-0.225 0.559-0.338 0.895l-0.031 0.105-0.526 1.606c-0.012 0.035-0.019 0.075-0.019 0.117 0 0.152 0.090 0.283 0.22 0.342l0.002 0.001 0.113 0.051c0.323 0.152 0.702 0.24 1.101 0.24 0.542 0 1.046-0.163 1.465-0.442l-0.010 0.006c0.663-0.442 1.107-1.166 1.162-1.997l0-0.008c0.023-0.112 0.201-0.873 0.717-0.917l0.751 0.212c0.287 0.081 0.549 0.234 0.762 0.443l4.725 4.67 2.473 2.134c0.164 0.141 0.272 0.344 0.289 0.572l0 0.003zM23.468 23.167l-1.395-1.204-4.698-4.644c-0.294-0.29-0.659-0.509-1.068-0.628l-0.018-0.004-0.809-0.228c-0.030-0.009-0.063-0.014-0.099-0.014-0.002 0-0.003 0-0.005 0h0c-0.516 0.002-0.957 0.293-1.242 0.821-0.124 0.231-0.211 0.48-0.26 0.738l-0.012 0.124c-0.058 0.573-0.369 1.064-0.818 1.363l-0.007 0.004c-0.294 0.192-0.653 0.307-1.040 0.307-0.213 0-0.418-0.035-0.61-0.099l0.014 0.004 0.417-1.273c0.104-0.319 0.222-0.638 0.349-0.949l0.526-1.281c0.23-0.537 0.674-0.944 1.222-1.121l0.014-0.004 1.725-0.546c0.18-0.059 0.386-0.093 0.601-0.093 0.192 0 0.378 0.027 0.554 0.078l-0.014-0.004 1.787 0.502c0.859 0.241 1.462 0.262 2.307 0.081 0.026-0.006 0.049-0.013 0.071-0.022l-0.002 0.001 0.207-0.089 3.381 7.168c-0.266 0.428-0.632 0.772-1.066 1.004l-0.015 0.007zM27.647 21.797c-0.012 0.032-0.036 0.057-0.066 0.070l-0.001 0-1.829 0.793c-0.015 0.007-0.032 0.010-0.050 0.010-0.050 0-0.093-0.029-0.113-0.071l-0-0.001-0.244-0.516c-0.013-0.061-0.039-0.114-0.075-0.159l0.001 0.001-3.991-8.463c-0.008-0.016-0.012-0.034-0.012-0.054 0-0.053 0.032-0.098 0.078-0.116l0.001-0 1.879-0.74c0.014-0.005 0.029-0.009 0.046-0.009 0.050 0 0.093 0.029 0.113 0.071l0 0.001 4.26 9.085c0.008 0.016 0.012 0.034 0.012 0.053 0 0.016-0.003 0.031-0.009 0.045l0-0.001z"></path>
</symbol>
<symbol id="icon-human-resources-1" viewBox="0 0 32 32">
<path fill="#2e2e26" style="fill: var(--color3, #2e2e26)" d="M5.714 5.785c1.463 0 2.654-1.157 2.654-2.58s-1.191-2.579-2.654-2.579-2.654 1.157-2.654 2.579c0 1.423 1.19 2.58 2.654 2.58zM5.714 1.375c1.050 0 1.904 0.821 1.904 1.83s-0.854 1.83-1.905 1.83-1.905-0.821-1.905-1.83c0-1.009 0.855-1.83 1.905-1.83zM1.937 12.119h7.553c0.207 0 0.375-0.168 0.375-0.375v0-1.849c-0.002-1.915-1.553-3.466-3.468-3.469h-1.367c-1.915 0.002-3.466 1.554-3.468 3.468v1.849c0 0 0 0 0 0 0 0.207 0.168 0.375 0.375 0.375 0 0 0 0 0.001 0h-0zM2.313 9.895c0.002-1.5 1.217-2.716 2.718-2.718h1.367c1.5 0.002 2.716 1.218 2.718 2.718v1.473h-6.802v-1.473zM24.979 5.785c1.463 0 2.654-1.157 2.654-2.58s-1.191-2.579-2.654-2.579c-1.464 0-2.654 1.157-2.654 2.579s1.19 2.58 2.654 2.58zM24.979 1.375c1.050 0 1.904 0.821 1.904 1.83s-0.854 1.83-1.904 1.83c-1.050 0-1.905-0.821-1.905-1.83s0.854-1.83 1.905-1.83zM21.203 12.119h7.553c0.207 0 0.375-0.168 0.375-0.375v0-1.849c-0.002-1.915-1.553-3.466-3.468-3.469h-1.367c-1.915 0.002-3.466 1.554-3.467 3.468v1.849c0 0.207 0.168 0.375 0.375 0.375h0zM21.578 9.895c0.002-1.5 1.217-2.716 2.718-2.718h1.367c1.501 0.002 2.717 1.218 2.718 2.718v1.473h-6.803v-1.473zM15.346 5.785c1.464 0 2.654-1.157 2.654-2.58s-1.19-2.579-2.654-2.579c-1.463 0-2.654 1.157-2.654 2.579s1.191 2.58 2.654 2.58zM15.346 1.375c1.050 0 1.905 0.821 1.905 1.83s-0.854 1.83-1.905 1.83c-1.050 0-1.904-0.821-1.904-1.83s0.854-1.83 1.904-1.83zM11.57 12.119h7.553c0.207 0 0.375-0.168 0.375-0.375v0-1.849c-0.002-1.915-1.553-3.466-3.468-3.469h-1.367c-1.914 0.003-3.465 1.554-3.467 3.468v1.849c0 0.207 0.168 0.375 0.375 0.375v0zM11.945 9.895c0.001-1.501 1.217-2.717 2.718-2.718h1.367c1.5 0.002 2.716 1.218 2.718 2.718v1.473h-6.802v-1.473z"></path>
<path fill="#2493eb" style="fill: var(--color2, #2493eb)" d="M15.506 19.264c1.345 0 2.44-1.064 2.44-2.373s-1.095-2.373-2.44-2.373c-1.346 0-2.44 1.065-2.44 2.373s1.094 2.373 2.44 2.373zM15.506 15.269c0.931 0 1.69 0.728 1.69 1.623s-0.758 1.622-1.69 1.622-1.69-0.728-1.69-1.623c0-0.894 0.758-1.623 1.69-1.623zM12.085 25.002h6.842c0.207 0 0.375-0.168 0.375-0.375v0-1.383c-0.002-1.915-1.553-3.467-3.468-3.469h-0.657c-1.915 0.002-3.466 1.554-3.468 3.468v1.384c0 0 0 0 0 0 0 0.207 0.168 0.375 0.375 0.375 0 0 0 0 0.001 0h-0zM12.459 23.243c0.002-1.5 1.218-2.716 2.718-2.718h0.657c1.5 0.002 2.716 1.218 2.718 2.718v1.009h-6.093v-1.009z"></path>
<path fill="#2e2e26" style="fill: var(--color3, #2e2e26)" d="M8.159 21.353c0.565 3.579 3.749 6.143 7.371 6.143 0.39 0 0.78-0.030 1.166-0.089 1.864-0.279 3.472-1.207 4.619-2.543l0.008-0.010 1.699 1.232c-0.072 0.146-0.115 0.317-0.115 0.498 0 0.381 0.187 0.719 0.475 0.926l0.003 0.002 5.030 3.643c0.19 0.137 0.428 0.219 0.685 0.219 0.383 0 0.723-0.182 0.938-0.465l0.002-0.003 0.17-0.227c0.142-0.188 0.227-0.425 0.227-0.683 0-0.382-0.187-0.719-0.475-0.926l-0.003-0.002-5.030-3.643c-0.19-0.136-0.428-0.218-0.684-0.218-0.294 0-0.562 0.107-0.769 0.284l0.002-0.001-1.697-1.231c0.799-1.131 1.278-2.538 1.278-4.057 0-0.391-0.032-0.774-0.093-1.148l0.006 0.041c-0.624-3.959-4.454-6.675-8.537-6.054-2.021 0.307-3.786 1.369-4.973 2.99-0.868 1.163-1.39 2.628-1.39 4.215 0 0.391 0.032 0.774 0.092 1.147l-0.005-0.041zM24.244 25.954c0.088 0 0.174 0.027 0.246 0.079l5.030 3.643c0.101 0.072 0.166 0.189 0.166 0.322 0 0.033-0.004 0.065-0.012 0.096l0.001-0.003c-0.014 0.053-0.036 0.1-0.067 0.14l0.001-0.001-0.17 0.227c-0.079 0.103-0.201 0.168-0.339 0.168-0.093 0-0.178-0.030-0.248-0.080l0.001 0.001-5.031-3.644c-0.101-0.072-0.167-0.189-0.167-0.322 0-0.033 0.004-0.065 0.012-0.096l-0.001 0.003c0.014-0.053 0.037-0.1 0.068-0.14l-0.001 0.001 0.17-0.227c0.078-0.102 0.2-0.168 0.337-0.168 0.001 0 0.001 0 0.002 0h-0zM14.547 13.783c0.349-0.053 0.701-0.080 1.054-0.080 3.259 0 6.123 2.298 6.63 5.509 0.049 0.297 0.077 0.639 0.077 0.988 0 1.421-0.468 2.734-1.257 3.791l0.012-0.017c-1.055 1.427-2.632 2.416-4.443 2.687l-0.037 0.005c-3.676 0.559-7.122-1.876-7.683-5.429-0.049-0.297-0.077-0.639-0.077-0.988 0-1.421 0.467-2.733 1.257-3.791l-0.012 0.017c1.055-1.427 2.632-2.416 4.443-2.687l0.037-0.005z"></path>
</symbol>
<symbol id="icon-mouse" viewBox="0 0 32 32">
<path fill="#fff" style="fill: var(--color1, #fff)" opacity="0.5" d="M15.975 0c-5.196 0.006-9.407 4.216-9.412 9.412v13.176c0.006 5.195 4.216 9.406 9.41 9.412h0.001c5.197-0.005 9.408-4.216 9.414-9.412v-13.177c-0.007-5.195-4.217-9.405-9.412-9.411h-0.001zM23.468 22.588c0 4.131-3.36 7.492-7.492 7.492-4.136-0.005-7.487-3.356-7.492-7.492v-13.177c0-4.131 3.36-7.492 7.491-7.492 4.132 0 7.494 3.36 7.494 7.492v13.175z"></path>
<path fill="#fff" style="fill: var(--color1, #fff)" opacity="0.5" d="M15.975 6.365c-0.53 0-0.96 0.43-0.96 0.96v0 4.419c0 0.53 0.43 0.96 0.96 0.96s0.96-0.43 0.96-0.96v0-4.419c0-0.53-0.43-0.96-0.96-0.96v0z"></path>
</symbol>
<symbol id="icon-protection" viewBox="0 0 32 32">
<path fill="#2e2e26" style="fill: var(--color3, #2e2e26)" d="M13.88 30.519l1.832 0.765c0.043 0.018 0.093 0.029 0.145 0.029 0.054 0 0.106-0.011 0.153-0.032l-0.002 0.001 1.911-0.829c5.859-2.499 9.891-8.21 9.894-14.862v-8.165c-0.002-0.141-0.080-0.263-0.195-0.327l-0.002-0.001-11.432-6.364c-0.053-0.030-0.116-0.047-0.183-0.047s-0.13 0.018-0.185 0.048l0.002-0.001-11.434 6.363c-0.117 0.065-0.195 0.187-0.197 0.327v8.316c0 6.577 3.941 12.233 9.59 14.737l0.103 0.041zM4.938 7.646l11.062-6.155 11.062 6.156v7.945c-0.003 6.344-3.849 11.789-9.335 14.133l-0.1 0.038-1.769 0.767-1.682-0.701c-5.482-2.427-9.237-7.818-9.237-14.087 0-0.001 0-0.001 0-0.002v0-8.095z"></path>
<path fill="#2e2e26" style="fill: var(--color3, #2e2e26)" d="M14.516 29.005c0.002 0.001 0.010 0.002 0.012 0.002l1.171 0.488c0.043 0.018 0.093 0.029 0.146 0.029 0.054 0 0.106-0.011 0.153-0.032l-0.002 0.001 1.283-0.556c5.268-2.241 8.898-7.368 8.909-13.345v-7.199c-0.006-0.142-0.087-0.264-0.204-0.327l-0.002-0.001-9.792-5.448c-0.053-0.030-0.116-0.047-0.184-0.047s-0.131 0.018-0.186 0.048l0.002-0.001-9.801 5.448c-0.12 0.064-0.202 0.186-0.208 0.327l-0 0.001v7.347c0.004 5.903 3.541 10.979 8.611 13.228l0.092 0.037zM16 10.589c0 0 0.001 0 0.002 0 2.988 0 5.411 2.422 5.411 5.411s-2.422 5.411-5.411 5.411c-2.988 0-5.411-2.422-5.411-5.411v0c0.003-2.986 2.423-5.407 5.409-5.411h0zM25.437 8.614v6.978c-0.012 5.668-3.452 10.529-8.355 12.623l-0.090 0.034-0.764 0.329 0.036-6.422c3.286-0.147 5.894-2.846 5.894-6.155 0-3.284-2.57-5.968-5.809-6.151l-0.016-0.001 0.050-6.267 9.055 5.032zM6.563 8.614l9.045-5.028-0.029 6.269c-3.215 0.229-5.736 2.893-5.736 6.146 0 3.23 2.486 5.88 5.649 6.14l0.022 0.001-0.038 6.446-0.662-0.271c-4.893-2.168-8.246-6.979-8.25-12.575v-7.128z"></path>
<path fill="#2493eb" style="fill: var(--color2, #2493eb)" d="M8.375 14.936v-1.97c0-0.207-0.168-0.375-0.375-0.375s-0.375 0.168-0.375 0.375v1.97c0.003 2.568 0.673 4.979 1.846 7.070l-0.038-0.073c0.066 0.117 0.189 0.194 0.331 0.194 0.067 0 0.13-0.017 0.184-0.048l-0.002 0.001c0.115-0.065 0.191-0.186 0.191-0.326 0-0.068-0.018-0.131-0.050-0.186l0.001 0.002c-1.076-1.913-1.711-4.199-1.714-6.633v-0.001zM8 11.793c0.207 0 0.375-0.168 0.375-0.375v0-0.34c0-0.207-0.168-0.375-0.375-0.375s-0.375 0.168-0.375 0.375v0 0.34c0 0.207 0.168 0.375 0.375 0.375v0zM13.996 16.973l-0.344 2.009c-0.003 0.019-0.005 0.041-0.005 0.063 0 0.207 0.168 0.375 0.375 0.375 0.064 0 0.124-0.016 0.176-0.044l-0.002 0.001 1.804-0.949 1.804 0.949c0.050 0.027 0.11 0.043 0.174 0.043 0.207 0 0.375-0.168 0.375-0.375 0-0.022-0.002-0.044-0.006-0.065l0 0.002-0.344-2.009 1.459-1.423c0.070-0.068 0.113-0.163 0.113-0.268 0-0.188-0.138-0.344-0.319-0.371l-0.002-0-2.017-0.293-0.902-1.828c-0.063-0.125-0.19-0.209-0.337-0.209s-0.274 0.084-0.336 0.207l-0.001 0.002-0.902 1.828-2.017 0.293c-0.183 0.027-0.322 0.183-0.322 0.371 0 0.106 0.044 0.201 0.114 0.269l0 0 1.459 1.423zM15.065 15.33c0.124-0.019 0.227-0.096 0.281-0.203l0.001-0.002 0.653-1.322 0.653 1.324c0.055 0.109 0.158 0.186 0.28 0.204l0.002 0 1.46 0.213-1.057 1.030c-0.070 0.068-0.114 0.163-0.114 0.269 0 0.022 0.002 0.044 0.006 0.066l-0-0.002 0.249 1.455-1.306-0.687c-0.051-0.027-0.111-0.043-0.175-0.043s-0.124 0.016-0.177 0.044l0.002-0.001-1.306 0.687 0.249-1.455c0.003-0.019 0.005-0.041 0.005-0.063 0-0.105-0.043-0.201-0.113-0.269l-0-0-1.057-1.030 1.461-0.213z"></path>
</symbol>
<symbol id="icon-search" viewBox="0 0 32 32">
<path fill="#2493eb" style="fill: var(--color2, #2493eb)" d="M16 16.306c3.79 0 6.862-3.072 6.862-6.862s-3.072-6.862-6.862-6.862c-3.79 0-6.862 3.072-6.862 6.862v0c0.004 3.788 3.074 6.857 6.861 6.862h0zM16 3.333c3.375 0 6.111 2.736 6.111 6.111s-2.736 6.111-6.111 6.111c-3.375 0-6.111-2.736-6.111-6.111v0c0.004-3.374 2.738-6.108 6.111-6.111h0z"></path>
<path fill="#2493eb" style="fill: var(--color2, #2493eb)" d="M13.413 5.987c0.708-0.539 1.604-0.863 2.577-0.863 0.004 0 0.008 0 0.011 0h-0.001v-0.749c-0.004 0-0.008-0-0.013-0-1.141 0-2.194 0.381-3.037 1.022l0.012-0.009c-0.842 0.638-1.473 1.514-1.798 2.528l-0.010 0.036 0.717 0.221c0.285-0.895 0.824-1.642 1.531-2.178l0.011-0.008zM10.989 8.667c-0.037 0.231-0.059 0.499-0.059 0.771v0h0.75c0.001-0.221 0.018-0.441 0.050-0.658l-0.741-0.113z"></path>
<path fill="#2e2e26" style="fill: var(--color3, #2e2e26)" d="M14.813 18.191v1.371h-0.875c-0.209 0.011-0.375 0.184-0.375 0.395 0 0.001 0 0.002 0 0.004v-0 11.043c0 0 0 0 0 0 0 0.205 0.166 0.371 0.371 0.371 0.001 0 0.002 0 0.004-0h4.125c0.001 0 0.002 0 0.003 0 0.205 0 0.372-0.166 0.372-0.371v-11.043c0-0.001 0-0.002 0-0.003 0-0.211-0.166-0.384-0.374-0.395l-0.001-0h-0.875v-1.371c4.34-0.604 7.644-4.289 7.647-8.746v-0c0-4.865-3.963-8.823-8.829-8.823s-8.837 3.958-8.837 8.823c0.001 4.457 3.305 8.142 7.598 8.741l0.046 0.005zM17.687 30.625h-3.375v-1.751h3.375v1.75zM17.687 20.313v7.812h-3.375v-7.813h0.5v1.028c0 0.207 0.189 0.347 0.396 0.347h1.583c0.207 0 0.396-0.141 0.396-0.347v-1.027h0.5zM15.563 20.937v-2.679c0.187 0.006 0.297 0.010 0.437 0.010s0.25-0.003 0.438-0.010v2.679h-0.875zM16 1.371c4.459 0 8.074 3.615 8.074 8.074s-3.615 8.074-8.074 8.074c-4.459 0-8.074-3.615-8.074-8.074 0-0 0-0 0-0.001v0c0.006-4.457 3.617-8.068 8.074-8.073h0z"></path>
</symbol>
<symbol id="icon-security" viewBox="0 0 32 32">
<path fill="#2493eb" style="fill: var(--color2, #2493eb)" d="M6.808 25.571c0.137 0.161 0.379 0.183 0.543 0.049l3.89-3.165c0.088-0.072 0.144-0.181 0.144-0.303 0-0.216-0.175-0.39-0.39-0.39-0.094 0-0.18 0.033-0.247 0.088l0.001-0.001-3.594 2.924-1.423-1.666c-0.072-0.084-0.178-0.137-0.297-0.137-0.215 0-0.39 0.175-0.39 0.39 0 0.097 0.035 0.186 0.094 0.254l-0-0.001 1.67 1.956z"></path>
<path fill="#2e2e26" style="fill: var(--color3, #2e2e26)" d="M7.091 31.594l0.857 0.373c0.099 0.043 0.211 0.043 0.31 0.001l0.966-0.417c0.437-0.186 0.8-0.373 1.148-0.581l-0.043 0.024h18.56c0.91-0.001 1.648-0.739 1.649-1.649v-26.184c-0.001-0.91-0.739-1.648-1.649-1.649h-8.43c-0.438-0.9-1.346-1.51-2.396-1.51s-1.958 0.61-2.389 1.494l-0.007 0.016h-8.43c-0.91 0.001-1.648 0.739-1.649 1.649v13.646l-3.826 2.097c-0.121 0.068-0.202 0.195-0.202 0.342 0 0 0 0 0 0v0 3.905c0.004 3.755 2.25 6.984 5.472 8.421l0.059 0.023zM28.89 2.291c0.48 0 0.869 0.389 0.869 0.869v26.184c0 0.479-0.389 0.868-0.869 0.869h-17.435c0.91-0.74 1.664-1.631 2.233-2.64l0.024-0.046h9.604c0.051 0 0.102-0.004 0.152-0.011 0.028 0.007 0.060 0.011 0.093 0.011 0.116 0 0.221-0.051 0.291-0.133l0-0c0.101-0.054 0.193-0.122 0.273-0.202l3.159-3.159c0.215-0.215 0.336-0.506 0.335-0.81v-17.225c-0.001-0.563-0.457-1.019-1.019-1.019h-1.726v-1.189c0-0.216-0.175-0.39-0.39-0.39h-3.764v-0.743c-0-0.129-0.010-0.255-0.027-0.379l0.002 0.014h8.195zM14.661 18.9l-5.371-2.863v-10.040c0-0.132 0.107-0.239 0.239-0.239h1.726v1.051c0 0.216 0.174 0.391 0.39 0.391h12.84c0.216 0 0.39-0.175 0.39-0.39v0-1.052h1.726c0.131 0 0.239 0.107 0.239 0.239v17.131h-2.021c-0.91 0.001-1.648 0.739-1.649 1.649v1.968h-9.071c0.486-1.084 0.769-2.349 0.769-3.68 0-0.002 0-0.003 0-0.005v0-3.817c-0-0.148-0.083-0.277-0.205-0.343l-0.002-0.001zM26.303 23.909l-2.354 2.354v-1.486c0-0.479 0.389-0.868 0.869-0.869h1.485zM18.065 0.781c1.035 0.002 1.874 0.84 1.875 1.875v1.133c0 0.215 0.175 0.39 0.39 0.39h3.764v2.24h-12.059v-2.24h3.763c0.216 0 0.39-0.175 0.39-0.39v0-1.133c0.001-1.035 0.84-1.874 1.876-1.875h0zM6.37 3.16c0-0.48 0.389-0.869 0.869-0.869h8.195c-0.017 0.121-0.025 0.243-0.026 0.365v0.743h-3.763c-0.216 0-0.39 0.175-0.39 0.39v0 1.189h-1.726c-0.563 0.001-1.019 0.457-1.019 1.019v9.625l-0.199-0.106c-0.053-0.029-0.116-0.046-0.184-0.046-0.069 0-0.134 0.018-0.19 0.049l0.002-0.001-1.569 0.859v-13.218zM2.341 19.475l5.787-3.171 5.958 3.175v3.583c-0.001 3.477-2.107 6.462-5.113 7.75l-0.055 0.021-0.003 0.001-0.811 0.35-0.701-0.306c-3.003-1.337-5.059-4.292-5.063-7.729v-3.674z"></path>
<path fill="#2493eb" style="fill: var(--color2, #2493eb)" d="M24.011 11.177h0.473c0.209-0.008 0.375-0.18 0.375-0.39s-0.166-0.382-0.375-0.39l-0.001-0h-0.473c-0.209 0.008-0.375 0.18-0.375 0.39s0.166 0.382 0.375 0.39l0.001 0zM15.6 11.177h6.937c0.209-0.008 0.375-0.18 0.375-0.39s-0.166-0.382-0.375-0.39l-0.001-0h-6.937c-0.209 0.008-0.375 0.18-0.375 0.39s0.166 0.382 0.375 0.39l0.001 0zM11.645 11.177h2.452c0.004 0 0.010 0 0.015 0 0.216 0 0.39-0.175 0.39-0.39s-0.175-0.39-0.39-0.39c-0.005 0-0.010 0-0.016 0l0.001-0h-2.452c-0.209 0.008-0.375 0.18-0.375 0.39s0.166 0.382 0.375 0.39l0.001 0z"></path>
<path fill="#2e2e26" style="fill: var(--color3, #2e2e26)" d="M22.768 14.181c0 0.215 0.175 0.39 0.39 0.39h1.326c0.209-0.008 0.375-0.18 0.375-0.39s-0.166-0.382-0.375-0.39l-0.001-0h-1.326c-0 0-0 0-0.001 0-0.216 0-0.39 0.175-0.39 0.39v0zM21.723 14.571c0.216 0 0.39-0.175 0.39-0.39s-0.175-0.39-0.39-0.39h-1.807c-0.209 0.008-0.375 0.18-0.375 0.39s0.166 0.382 0.375 0.39l0.001 0h1.807zM19.044 14.181c0-0.216-0.175-0.39-0.39-0.39v0h-7.009c-0.209 0.008-0.375 0.18-0.375 0.39s0.166 0.382 0.375 0.39l0.001 0h7.009c0 0 0 0 0 0 0.215 0 0.39-0.174 0.39-0.39v-0zM24.485 17.396h-7.333c-0.216 0-0.39 0.175-0.39 0.39s0.175 0.39 0.39 0.39h7.333c0.216 0 0.39-0.175 0.39-0.39s-0.175-0.39-0.39-0.39v0zM16.106 17.786c0-0.216-0.175-0.39-0.39-0.39v0h-1.743c-0.216 0-0.39 0.175-0.39 0.39s0.175 0.39 0.39 0.39h1.743c0.216 0 0.39-0.175 0.39-0.39v0zM24.485 20.729h-4.726c-0.216 0-0.39 0.175-0.39 0.39s0.175 0.39 0.39 0.39h4.726c0.216 0 0.39-0.175 0.39-0.39s-0.175-0.39-0.39-0.39v0zM18.323 20.729h-2.478c-0.216 0-0.39 0.175-0.39 0.39s0.175 0.39 0.39 0.39h2.478c0.216 0 0.39-0.175 0.39-0.39s-0.175-0.39-0.39-0.39v0z"></path>
</symbol>
<symbol id="icon-timer" viewBox="0 0 32 32">
<path fill="#2e2e26" style="fill: var(--color3, #2e2e26)" d="M24.182 10.303c0.068-0.068 0.11-0.162 0.11-0.265 0-0.207-0.168-0.375-0.375-0.375-0.104 0-0.197 0.042-0.265 0.11v0l-0.747 0.747c-1.716-1.606-4.002-2.622-6.524-2.714l-0.018-0.001v-1.053c0-0.207-0.168-0.375-0.375-0.375s-0.375 0.168-0.375 0.375v0 1.054c-2.537 0.099-4.818 1.118-6.535 2.731l0.005-0.005-0.76-0.76c-0.068-0.068-0.162-0.11-0.265-0.11-0.207 0-0.375 0.168-0.375 0.375 0 0.104 0.042 0.197 0.11 0.265v0l0.761 0.761c-1.595 1.716-2.604 3.996-2.697 6.51l-0.001 0.018h-1.083c-0.207 0-0.375 0.168-0.375 0.375s0.168 0.375 0.375 0.375h1.083c0.024 0.662 0.108 1.291 0.246 1.9l-0.013-0.068c0.042 0.165 0.189 0.284 0.364 0.284 0.207 0 0.375-0.168 0.375-0.375 0-0.024-0.002-0.048-0.007-0.072l0 0.002c-0.142-0.614-0.224-1.318-0.224-2.042 0-0.001 0-0.002 0-0.004v0c0-5.194 4.217-9.419 9.402-9.419s9.402 4.225 9.402 9.419c0 5.194-4.217 9.419-9.402 9.419-3.52-0.004-6.587-1.941-8.197-4.807l-0.024-0.047c-0.066-0.114-0.187-0.19-0.326-0.19-0.207 0-0.375 0.168-0.375 0.375 0 0.068 0.018 0.132 0.050 0.187l-0.001-0.002c0.42 0.747 0.894 1.392 1.434 1.974l-0.006-0.006-0.762 0.762c-0.068 0.068-0.109 0.162-0.109 0.265s0.042 0.197 0.109 0.265l-0-0c0.068 0.068 0.162 0.11 0.265 0.11s0.197-0.042 0.265-0.11v0l0.76-0.76c1.712 1.608 3.993 2.627 6.511 2.725l0.019 0.001v1.054c0.008 0.201 0.173 0.361 0.375 0.361s0.367-0.16 0.375-0.36l0-0.001v-1.053c2.54-0.092 4.826-1.108 6.547-2.72l-0.006 0.005 0.747 0.747c0.066 0.060 0.155 0.097 0.252 0.097 0.207 0 0.375-0.168 0.375-0.375 0-0.097-0.037-0.186-0.097-0.252l0 0-0.748-0.748c1.602-1.718 2.615-4.003 2.709-6.523l0.001-0.018h1.058c0.207 0 0.375-0.168 0.375-0.375s-0.168-0.375-0.375-0.375v0h-1.057c-0.095-2.539-1.108-4.824-2.716-6.548l0.006 0.006 0.748-0.748z"></path>
<path fill="#2e2e26" style="fill: var(--color3, #2e2e26)" d="M14.707 9.275c-0.147 0.022-0.296 0.048-0.442 0.078-0.173 0.036-0.301 0.187-0.301 0.368 0 0.207 0.168 0.375 0.375 0.375 0.026 0 0.052-0.003 0.077-0.008l-0.002 0c0.134-0.027 0.27-0.051 0.405-0.071 0.182-0.028 0.32-0.183 0.32-0.371 0-0.207-0.168-0.375-0.375-0.375-0.020 0-0.039 0.002-0.058 0.004l0.002-0zM8.054 17.875c0-0.002 0-0.005 0-0.008 0-3.264 1.97-6.067 4.786-7.287l0.051-0.020c0.135-0.059 0.228-0.191 0.228-0.345 0-0.207-0.168-0.375-0.375-0.375-0.053 0-0.104 0.011-0.149 0.031l0.002-0.001c-3.138 1.356-5.293 4.425-5.293 7.996 0 0.003 0 0.006 0 0.009v-0c0 0.207 0.168 0.375 0.375 0.375s0.375-0.168 0.375-0.375v0z"></path>
<path fill="#2493eb" style="fill: var(--color2, #2493eb)" d="M21.122 13.016c-0.068-0.071-0.164-0.115-0.27-0.115-0.101 0-0.193 0.040-0.261 0.105l0-0-3.786 3.662c-0.228-0.148-0.507-0.236-0.806-0.236-0.826 0-1.495 0.67-1.495 1.495s0.67 1.495 1.495 1.495c0.826 0 1.495-0.67 1.495-1.495 0-0.26-0.066-0.505-0.183-0.718l0.004 0.008 3.798-3.671c0.071-0.068 0.114-0.164 0.114-0.27 0-0.101-0.040-0.193-0.105-0.261l0 0zM16 18.674c-0.001 0-0.001 0-0.002 0-0.412 0-0.746-0.334-0.746-0.746s0.333-0.745 0.744-0.746h0c0.001 0 0.001 0 0.002 0 0.412 0 0.746 0.334 0.746 0.746s-0.333 0.745-0.744 0.746h-0z"></path>
<path fill="#2e2e26" style="fill: var(--color3, #2e2e26)" d="M24.22 6.99l0.603-0.822 0.562 0.364c0.172 0.113 0.382 0.181 0.608 0.181 0.084 0 0.166-0.009 0.244-0.027l-0.007 0.001c0.51-0.113 0.885-0.561 0.885-1.097 0-0.393-0.202-0.739-0.508-0.94l-0.004-0.003-3.134-2.029c-0.169-0.108-0.376-0.172-0.597-0.172-0.62 0-1.122 0.502-1.122 1.122 0 0.389 0.198 0.731 0.498 0.933l0.004 0.003 0.673 0.435-0.61 0.846c-1.489-0.792-3.232-1.324-5.082-1.484l-0.051-0.004v-1.495h0.559c0.688 0 1.245-0.557 1.245-1.245s-0.557-1.245-1.245-1.245v0h-3.484c-0.688 0-1.245 0.557-1.245 1.245s0.557 1.245 1.245 1.245v0h0.498v1.501c-7.013 0.673-12.452 6.535-12.452 13.668 0 3.786 1.533 7.214 4.011 9.697l-0-0c2.478 2.462 5.892 3.983 9.661 3.983 7.571 0 13.709-6.138 13.709-13.709 0-4.461-2.131-8.425-5.431-10.928l-0.034-0.025zM22.66 3.875c-0.102-0.068-0.168-0.182-0.168-0.312 0-0.177 0.123-0.325 0.288-0.364l0.003-0.001c0.023-0.005 0.050-0.008 0.077-0.008 0.075 0 0.145 0.022 0.204 0.060l-0.001-0.001 3.133 2.028c0.103 0.068 0.169 0.183 0.169 0.313 0 0.126-0.062 0.238-0.158 0.305l-0.001 0.001c-0.059 0.041-0.132 0.066-0.211 0.066-0.075 0-0.145-0.022-0.203-0.061l0.001 0.001-3.133-2.028zM24.193 5.761l-0.583 0.794c-0.156-0.108-0.363-0.24-0.574-0.367l-0.061-0.034 0.581-0.806 0.636 0.411zM14.258 2.053c-0.266-0.009-0.479-0.227-0.479-0.495s0.212-0.486 0.478-0.495l0.001-0h3.484c0.273 0 0.495 0.222 0.495 0.495s-0.222 0.495-0.495 0.495h-3.484zM16.433 2.803v1.452c-0.128-0.004-0.279-0.007-0.431-0.007h-0.001c-0.165 0-0.33 0.004-0.494 0.010v-1.454h0.926zM16 30.937c-7.139 0-12.947-5.818-12.947-12.97 0-7.151 5.808-12.97 12.947-12.97s12.947 5.819 12.947 12.97-5.808 12.97-12.947 12.97z"></path>
</symbol>
<symbol id="icon-tools" viewBox="0 0 32 32">
<path fill="#2e2e26" style="fill: var(--color3, #2e2e26)" d="M19.555 15.632l1.098-1.098c0.068-0.068 0.11-0.162 0.11-0.265s-0.042-0.197-0.11-0.265v0l-0.329-0.329 6.874-6.874 1.741-0.618c0.084-0.031 0.153-0.088 0.197-0.162l0.001-0.002 2.067-3.535c0.032-0.054 0.051-0.119 0.051-0.189 0-0.103-0.042-0.197-0.109-0.265v0l-1.175-1.175c-0.068-0.068-0.161-0.109-0.265-0.109-0.070 0-0.135 0.019-0.191 0.052l0.002-0.001-3.535 2.067c-0.076 0.045-0.133 0.113-0.163 0.195l-0.001 0.003-0.617 1.741-6.875 6.874-0.329-0.329c-0.068-0.068-0.162-0.11-0.265-0.11s-0.197 0.042-0.265 0.11v0l-1.098 1.098-2.147-2.147c0.346-0.815 0.546-1.763 0.546-2.757 0-3.993-3.237-7.23-7.23-7.23-0.821 0-1.61 0.137-2.345 0.389l0.051-0.015c-0.15 0.052-0.255 0.191-0.255 0.356 0 0.104 0.042 0.197 0.11 0.265l2.636 2.637-0.628 3.13-3.253 0.575-2.543-2.56c-0.068-0.068-0.162-0.111-0.266-0.111-0.165 0-0.305 0.106-0.355 0.253l-0.001 0.003c-0.239 0.688-0.377 1.48-0.377 2.305 0 3.993 3.237 7.23 7.23 7.23 0.995 0 1.943-0.201 2.806-0.565l-0.048 0.018 1.277 1.277-1.418 0.776c-0.032 0.018-0.060 0.039-0.085 0.064l-8.469 8.468c-0.529 0.531-0.857 1.263-0.857 2.072s0.327 1.541 0.857 2.072l1.445 1.445c0.531 0.529 1.263 0.857 2.072 0.857s1.541-0.327 2.072-0.857l8.469-8.468c0.025-0.025 0.046-0.053 0.063-0.084l0.001-0.002 0.776-1.418 10.452 10.451c0.502 0.5 1.194 0.809 1.958 0.809 1.532 0 2.774-1.242 2.774-2.774 0-0.381-0.077-0.745-0.216-1.075l0.007 0.018c-0.147-0.35-0.35-0.649-0.601-0.899l-11.321-11.321zM18.846 17.762c-0.12 0.12-0.286 0.194-0.469 0.194s-0.349-0.074-0.469-0.194v0l-3.67-3.67c-0.112-0.118-0.181-0.279-0.181-0.455 0-0.366 0.297-0.663 0.663-0.663 0.176 0 0.336 0.069 0.455 0.181l3.67 3.67c0.12 0.12 0.194 0.286 0.194 0.469s-0.074 0.349-0.194 0.469l0-0zM25.79 5.274c0.038-0.038 0.068-0.085 0.087-0.137l0.001-0.003 0.6-1.692 3.167-1.851 0.765 0.765-1.851 3.167-1.691 0.6c-0.055 0.020-0.101 0.050-0.14 0.088v0l-6.935 6.934-0.937-0.937 6.933-6.934zM17.731 12.143l2.126 2.126-1.253 1.253-2.127-2.127 1.253-1.253zM10.649 13.51c-0.068-0.068-0.162-0.109-0.265-0.109-0.056 0-0.11 0.012-0.158 0.035l0.002-0.001c-0.788 0.365-1.709 0.578-2.681 0.578-1.79 0-3.412-0.723-4.588-1.893l0 0c-1.175-1.167-1.903-2.783-1.903-4.57 0-0.525 0.063-1.035 0.181-1.524l-0.009 0.044 2.23 2.246c0.068 0.068 0.162 0.111 0.266 0.111 0.023 0 0.046-0.002 0.068-0.006l-0.002 0 3.698-0.653c0.152-0.028 0.271-0.144 0.302-0.293l0-0.002 0.717-3.578c0.005-0.022 0.007-0.048 0.007-0.074 0-0.103-0.042-0.197-0.11-0.265v0l-2.327-2.327c0.438-0.106 0.941-0.166 1.458-0.166 3.579 0 6.48 2.901 6.48 6.48 0 0.974-0.215 1.899-0.6 2.728l0.017-0.040c-0.021 0.046-0.034 0.1-0.034 0.156 0 0.104 0.042 0.197 0.11 0.265v0l1.632 1.631c-0.13-0.044-0.281-0.069-0.437-0.069-0.526 0-0.985 0.288-1.227 0.715l-0.004 0.007-0.666-0.666c-0.068-0.068-0.162-0.11-0.265-0.11-0.207 0-0.375 0.168-0.375 0.375 0 0.103 0.042 0.197 0.11 0.265l1.033 1.034c0.031 0.212 0.111 0.414 0.232 0.591l-1.281 0.701-1.613-1.613zM15.094 21.434l-8.432 8.433c-0.395 0.394-0.94 0.638-1.542 0.638s-1.147-0.244-1.542-0.638l-1.445-1.446c-0.394-0.395-0.638-0.94-0.638-1.542s0.244-1.147 0.638-1.542l8.431-8.431 3.508-1.92 2.941 2.941-1.919 3.508zM30.345 30.344c-0.366 0.366-0.872 0.593-1.431 0.593s-1.065-0.227-1.431-0.593l-10.607-10.607 0.701-1.28c0.179 0.122 0.383 0.202 0.598 0.233 0.006 0.008 0.012 0.016 0.019 0.023l8.234 8.236c0.068 0.068 0.162 0.11 0.265 0.11 0.207 0 0.375-0.168 0.375-0.375 0-0.104-0.042-0.197-0.11-0.265v0l-7.893-7.894c0.435-0.245 0.723-0.703 0.723-1.229 0-0.157-0.026-0.307-0.073-0.448l0.003 0.010 10.625 10.625c0.366 0.366 0.593 0.872 0.593 1.431s-0.227 1.065-0.593 1.431v0z"></path>
<path fill="#2493eb" style="fill: var(--color2, #2493eb)" d="M12.332 8.73c0.197-0 0.358-0.152 0.373-0.345l0-0.001c0.011-0.134 0.017-0.29 0.017-0.448 0-0.651-0.107-1.277-0.305-1.862l0.012 0.041c-0.047-0.157-0.191-0.269-0.36-0.269-0.207 0-0.375 0.168-0.375 0.375 0 0.047 0.008 0.091 0.024 0.132l-0.001-0.003c0.162 0.473 0.255 1.019 0.255 1.586 0 0.137-0.005 0.273-0.016 0.408l0.001-0.018c-0.001 0.009-0.001 0.019-0.001 0.029 0 0.207 0.168 0.375 0.375 0.375 0 0 0 0 0.001 0h-0zM11.795 4.791c-0.122-0.187-0.239-0.346-0.363-0.499l0.008 0.011c-0.069-0.085-0.174-0.139-0.291-0.139-0.207 0-0.375 0.168-0.375 0.375 0 0.090 0.031 0.172 0.084 0.236l-0.001-0.001c0.111 0.137 0.214 0.279 0.309 0.426 0.068 0.103 0.183 0.171 0.314 0.171 0.207 0 0.375-0.168 0.375-0.375 0-0.076-0.023-0.147-0.061-0.206l0.001 0.001zM11.584 21.5l-5.992 5.992c-0.068 0.068-0.11 0.162-0.11 0.265 0 0.207 0.168 0.375 0.375 0.375 0.104 0 0.197-0.042 0.265-0.11v0l5.99-5.991c0.068-0.068 0.11-0.162 0.11-0.265 0-0.207-0.168-0.375-0.375-0.375-0.104 0-0.197 0.042-0.265 0.11v0zM10.499 19.885c-0.068-0.068-0.162-0.11-0.265-0.11s-0.197 0.042-0.265 0.11l-5.991 5.992c-0.068 0.068-0.11 0.162-0.11 0.265 0 0.207 0.168 0.375 0.375 0.375 0.104 0 0.197-0.042 0.265-0.11v0l5.991-5.992c0.068-0.068 0.11-0.162 0.11-0.265s-0.042-0.197-0.11-0.265v0z"></path>
</symbol>
<symbol id="icon-wallet" viewBox="0 0 32 32">
<path fill="#2e2e26" style="fill: var(--color3, #2e2e26)" d="M26.912 11.625h-2.725v-6.37c-0.004-0.127-0.069-0.238-0.167-0.305l-0.001-0.001c-0.059-0.043-0.133-0.069-0.213-0.069-0.044 0-0.087 0.008-0.127 0.022l0.003-0.001-1.619 0.576v-4.085c-0.008-0.214-0.179-0.386-0.393-0.393l-0.001-0h-11.335c-0.215 0.007-0.387 0.179-0.395 0.392l-0 0.001v8.389l-5.367 1.925c-1.011 0.237-1.753 1.129-1.758 2.194v14.831c0.013 1.25 1.025 2.26 2.275 2.268h21.825c1.251-0.008 2.264-1.018 2.275-2.267v-14.831c-0.012-1.252-1.023-2.264-2.274-2.276h-0.001zM22.062 6.274l1.375-0.487v5.839h-1.375v-5.351zM10.687 1.75h10.625v9.874h-0.75v-6.010c0-0.003 0-0.006 0-0.010 0-0.195-0.152-0.354-0.344-0.365l-0.001-0c-0.826-0.039-1.366-0.775-1.383-1.859 0-0 0-0.001 0-0.001 0-0.206-0.164-0.373-0.368-0.38h-4.929c-0.207 0.005-0.373 0.173-0.375 0.38v0c-0.018 1.101-0.539 1.815-1.377 1.853-0.194 0.013-0.347 0.174-0.347 0.371 0 0.003 0 0.007 0 0.010v-0 2.136c0 0.207 0.168 0.375 0.375 0.375s0.375-0.168 0.375-0.375v0-1.808c0.937-0.202 1.57-1.006 1.701-2.193h4.225c0.141 1.312 0.887 2.006 1.699 2.19v5.685h-1.581c0.072-0.219 0.107-0.449 0.105-0.68 0-0 0-0.001 0-0.001 0-1.291-1.046-2.337-2.337-2.337s-2.336 1.046-2.337 2.336v0c-0.002 0.232 0.033 0.463 0.106 0.683h-1.581v-2.291c0-0.207-0.168-0.375-0.375-0.375s-0.375 0.168-0.375 0.375v0 2.291h-0.75v-9.875zM17.587 10.942c0.003 0.237-0.051 0.471-0.159 0.683h-2.855c-0.101-0.192-0.16-0.419-0.16-0.66 0-0.007 0-0.014 0-0.021v0.001c0-0 0-0.001 0-0.001 0-0.876 0.71-1.587 1.587-1.587s1.586 0.71 1.587 1.585v0zM9.938 10.578v1.047h-2.97l2.97-1.047zM28.438 17.25h-1.042c-0.207 0-0.375 0.168-0.375 0.375s0.168 0.375 0.375 0.375v0h1.042v6.625h-4.592c-0.001 0-0.002 0-0.002 0-1.157 0-2.094-0.938-2.094-2.094 0-0.008 0-0.015 0-0.023v0.001-2.385c-0-0.006-0-0.014-0-0.021 0-1.159 0.938-2.099 2.096-2.103h2.092c0.207 0 0.375-0.168 0.375-0.375s-0.168-0.375-0.375-0.375v0h-2.091c-1.573 0.003-2.846 1.279-2.846 2.852 0 0.008 0 0.016 0 0.023v-0.001 2.385c-0 0.006-0 0.013-0 0.021 0 1.571 1.274 2.845 2.845 2.845 0 0 0 0 0.001 0h4.592v3.357c-0.012 0.836-0.689 1.511-1.525 1.518h-21.824c-0.837-0.008-1.514-0.682-1.526-1.517v-14.832c0.007-0.723 0.515-1.326 1.193-1.479l0.010-0.002c0.106-0.026 0.214-0.041 0.323-0.045h21.824c0.838 0.012 1.514 0.688 1.526 1.525v3.35z"></path>
<path fill="#2493eb" style="fill: var(--color2, #2493eb)" d="M23.625 19.749c-0 0-0 0-0.001 0-0.207 0-0.375 0.168-0.375 0.375 0 0 0 0 0 0.001v-0 2.385c0 0.207 0.168 0.375 0.375 0.375s0.375-0.168 0.375-0.375v0-2.385c0-0 0-0 0-0.001 0-0.207-0.168-0.375-0.375-0.375 0 0 0 0 0 0v0zM25.5 19.749c0 0 0 0 0 0-0.207 0-0.375 0.168-0.375 0.375 0 0 0 0 0 0.001v-0 2.385c0 0.207 0.168 0.375 0.375 0.375s0.375-0.168 0.375-0.375v-2.385c0-0 0-0 0-0.001 0-0.207-0.168-0.375-0.375-0.375 0 0 0 0 0 0v0z"></path>
</symbol>
<symbol id="logo-white" viewBox="0 0 39 32">
<path d="M32.681 9.694l6.128 6.331v9.166h-6.128v-15.497zM0 15.815v9.376h6.127v-15.708l-6.127 6.332zM8.17 7.374v17.818h6.127v-24.15l-6.127 6.332zM16.34 0v25.191h6.128v-25.191h-6.128zM24.511 1.252v23.94h6.127v-17.608l-6.127-6.332zM35.039 31.407c0.836 0 1.615-0.086 2.324-0.299v-1.518h1.36v1.817c-0.991 0.393-2.366 0.593-3.755 0.593-3.047 0-5.286-1.005-5.286-2.383s2.239-2.383 5.314-2.383c1.573 0 2.905 0.246 3.812 0.719l-0.879 0.413c-0.822-0.373-1.758-0.539-2.877-0.539-2.296 0-3.954 0.752-3.954 1.791 0 1.025 1.658 1.791 3.94 1.791zM13.705 27.287l-2.735 3.807-2.735-3.807h-1.305l-2.791 3.787-2.679-3.787h-1.46l3.317 4.66h1.516l2.707-3.721 2.707 3.721h1.488l3.316-4.66h-1.346zM20.328 31.367v-1.504h4.974v-0.566h-4.974v-1.431h5.584v-0.579h-7.001v4.66h7.199v-0.58h-5.782z"></path>
</symbol>
<symbol id="telephone" viewBox="0 0 32 32">
<path fill="#fff" style="fill: var(--color1, #fff)" d="M6.417 13.833c2.611 5.167 6.528 9.084 11.75 11.75l3.917-3.917c0.499-0.555 1.109-0.693 1.833-0.416 1.86 0.635 4.003 1.001 6.231 1.001 0.036 0 0.072-0 0.108-0l-0.006 0c0.002 0 0.004 0 0.006 0 0.457 0 0.869 0.191 1.16 0.498l0.001 0.001c0.357 0.292 0.583 0.732 0.583 1.225 0 0.009-0 0.018-0 0.027l0-0.001v6.251c0 0.444-0.194 0.86-0.582 1.25-0.292 0.308-0.704 0.499-1.161 0.499-0.002 0-0.004 0-0.006 0h0c-5.5 0-10.583-1.333-15.251-4-4.576-2.709-8.291-6.424-10.922-10.858l-0.078-0.142c-2.667-4.67-4-9.749-4-15.251 0-0.002 0-0.004 0-0.006 0-0.457 0.191-0.869 0.498-1.161l0.001-0.001c0.39-0.388 0.806-0.582 1.25-0.582h6.251c0.008-0 0.016-0 0.025-0 0.493 0 0.933 0.226 1.223 0.58l0.002 0.003c0.308 0.292 0.499 0.704 0.499 1.161 0 0.002 0 0.004 0 0.006v-0c0 2.223 0.335 4.335 1.003 6.336 0.22 0.721 0.081 1.331-0.418 1.83l-3.917 3.917z"></path>
</symbol>
<symbol id="instagram" viewBox="0 0 32 32">
<path stroke-linejoin="miter" stroke-linecap="butt" stroke-miterlimit="4" stroke-width="0.8649" d="M31.568 16c0 8.598-6.97 15.568-15.568 15.568s-15.568-6.97-15.568-15.568c0-8.598 6.97-15.568 15.568-15.568s15.568 6.97 15.568 15.568z"></path>
<path d="M21.041 13.27v-1.162c0-0.198-0.099-0.297-0.297-0.297h-1.135c-0.198 0-0.297 0.099-0.297 0.297v1.162c0 0.18 0.099 0.27 0.297 0.27h1.135c0.198 0 0.297-0.090 0.297-0.27zM12.095 21.054h8.649c0.198 0 0.297-0.099 0.297-0.297v-4.892h-1.216c0.036 0.216 0.054 0.405 0.054 0.568 0 0.955-0.342 1.775-1.027 2.459-0.667 0.667-1.478 1-2.432 1s-1.775-0.333-2.46-1c-0.667-0.685-1-1.505-1-2.459 0-0.198 0.018-0.387 0.054-0.568h-1.189v4.892c0 0.198 0.090 0.297 0.27 0.297zM18.068 14.811c-0.45-0.45-1-0.676-1.649-0.676-0.631 0-1.171 0.225-1.622 0.676s-0.676 0.991-0.676 1.622 0.225 1.171 0.676 1.622c0.45 0.45 0.991 0.676 1.622 0.676 0.649 0 1.198-0.225 1.649-0.676s0.676-0.991 0.676-1.622-0.225-1.171-0.676-1.622zM21.041 10.676c0.324 0 0.595 0.117 0.811 0.351 0.234 0.216 0.351 0.477 0.351 0.784v9.243c0 0.306-0.117 0.568-0.351 0.784-0.216 0.234-0.486 0.351-0.811 0.351h-9.216c-0.324 0-0.604-0.117-0.838-0.351-0.216-0.216-0.324-0.477-0.324-0.784v-9.243c0-0.306 0.108-0.568 0.324-0.784 0.234-0.234 0.514-0.351 0.838-0.351h9.216z"></path>
</symbol>
<symbol id="icon-twitter" viewBox="0 0 32 32">
<path fill="none" opacity="0.1" stroke="#fff" style="stroke: var(--color1, #fff)" stroke-linejoin="miter" stroke-linecap="butt" stroke-miterlimit="4" stroke-width="0.8649" d="M31.567 15.831c0 8.5-6.966 15.399-15.568 15.399s-15.568-6.899-15.568-15.399 6.965-15.399 15.568-15.399c8.602 0 15.568 6.899 15.568 15.399z"></path>
<path fill="#fff" style="fill: var(--color1, #fff)" opacity="0.5" d="M20.73 13.981c0 0.108 0 0.207 0 0.297 0 0.811-0.153 1.613-0.459 2.405-0.288 0.775-0.712 1.487-1.27 2.135-0.541 0.649-1.252 1.18-2.135 1.595-0.865 0.396-1.82 0.595-2.865 0.595-1.315 0-2.522-0.351-3.622-1.054 0.18 0.018 0.369 0.027 0.568 0.027 1.099 0 2.081-0.333 2.946-1-0.522-0.018-0.991-0.18-1.405-0.486-0.396-0.306-0.667-0.694-0.811-1.162 0.144 0.036 0.288 0.054 0.432 0.054 0.216 0 0.423-0.036 0.622-0.108-0.541-0.108-0.991-0.378-1.351-0.811s-0.541-0.928-0.541-1.486c0-0.018 0-0.027 0-0.027 0.342 0.18 0.703 0.279 1.081 0.297-0.703-0.486-1.054-1.144-1.054-1.973 0-0.432 0.108-0.829 0.324-1.189 0.595 0.721 1.306 1.297 2.135 1.73 0.847 0.432 1.757 0.676 2.73 0.73-0.036-0.18-0.054-0.36-0.054-0.541 0-0.649 0.225-1.198 0.676-1.649 0.468-0.468 1.027-0.703 1.676-0.703 0.685 0 1.261 0.243 1.73 0.73 0.541-0.108 1.045-0.297 1.514-0.568-0.18 0.559-0.532 0.991-1.054 1.297 0.486-0.054 0.946-0.171 1.378-0.351-0.324 0.468-0.721 0.874-1.189 1.216z"></path>
</symbol>
<symbol id="skype" viewBox="0 0 32 32">
<path stroke-linejoin="miter" stroke-linecap="butt" stroke-miterlimit="4" stroke-width="0.8649" d="M31.568 16c0 8.598-6.97 15.568-15.568 15.568s-15.568-6.97-15.568-15.568c0-8.598 6.97-15.568 15.568-15.568s15.568 6.97 15.568 15.568z"></path>
<path d="M21.568 17.649c0.234 0.451 0.351 0.919 0.351 1.405 0 0.865-0.315 1.604-0.946 2.216-0.613 0.613-1.36 0.919-2.243 0.919-0.541 0-1.045-0.117-1.514-0.351-0.342 0.054-0.676 0.081-1 0.081-1.531 0-2.838-0.532-3.919-1.595-1.063-1.063-1.595-2.342-1.595-3.838 0-0.36 0.036-0.721 0.108-1.081-0.288-0.486-0.432-1.018-0.432-1.595 0-0.865 0.306-1.604 0.919-2.216 0.631-0.613 1.387-0.919 2.27-0.919 0.613 0 1.18 0.162 1.703 0.486 0.306-0.054 0.622-0.081 0.946-0.081 1.514 0 2.802 0.532 3.865 1.595 1.081 1.045 1.622 2.315 1.622 3.811 0 0.396-0.045 0.784-0.135 1.162zM17.865 19.892c0.487-0.198 0.856-0.468 1.108-0.811 0.27-0.36 0.405-0.766 0.405-1.216 0-0.378-0.081-0.694-0.243-0.946-0.144-0.27-0.351-0.486-0.622-0.649-0.252-0.18-0.559-0.324-0.919-0.432-0.378-0.108-0.784-0.216-1.216-0.324-0.36-0.072-0.622-0.135-0.784-0.189-0.144-0.036-0.288-0.090-0.432-0.162s-0.252-0.153-0.324-0.243c-0.072-0.090-0.108-0.198-0.108-0.324 0-0.198 0.108-0.369 0.324-0.514 0.252-0.144 0.577-0.216 0.973-0.216 0.414 0 0.721 0.063 0.919 0.189 0.18 0.144 0.342 0.351 0.486 0.622 0.108 0.198 0.216 0.342 0.324 0.432s0.27 0.135 0.487 0.135 0.396-0.072 0.541-0.216c0.162-0.162 0.243-0.342 0.243-0.541s-0.063-0.396-0.189-0.595c-0.108-0.216-0.288-0.414-0.541-0.595-0.234-0.198-0.531-0.351-0.892-0.459-0.36-0.126-0.784-0.189-1.27-0.189-0.631 0-1.171 0.090-1.622 0.27-0.468 0.162-0.829 0.405-1.081 0.73-0.234 0.324-0.351 0.685-0.351 1.081 0 0.432 0.117 0.802 0.351 1.108 0.234 0.288 0.55 0.513 0.946 0.676 0.378 0.162 0.856 0.306 1.432 0.432 0.414 0.072 0.748 0.153 1 0.243 0.252 0.072 0.45 0.171 0.595 0.297 0.144 0.144 0.216 0.324 0.216 0.541 0 0.252-0.135 0.477-0.405 0.676-0.288 0.18-0.658 0.27-1.108 0.27-0.324 0-0.595-0.045-0.811-0.135-0.198-0.090-0.351-0.207-0.46-0.351s-0.207-0.333-0.297-0.568c-0.090-0.198-0.198-0.351-0.324-0.459-0.144-0.108-0.306-0.162-0.486-0.162-0.234 0-0.432 0.072-0.595 0.216-0.144 0.144-0.216 0.315-0.216 0.514 0 0.324 0.117 0.649 0.351 0.973s0.541 0.585 0.919 0.784c0.505 0.27 1.153 0.405 1.946 0.405 0.667 0 1.243-0.099 1.73-0.297z"></path>
</symbol>
<symbol id="icon-facebook" viewBox="0 0 32 32">
<path fill="none" opacity="0.1" stroke="#fff" style="stroke: var(--color1, #fff)" stroke-linejoin="miter" stroke-linecap="butt" stroke-miterlimit="4" stroke-width="0.8649" d="M31.568 16c0 8.598-6.97 15.568-15.568 15.568s-15.568-6.97-15.568-15.568c0-8.598 6.97-15.568 15.568-15.568s15.568 6.97 15.568 15.568z"></path>
<path fill="#fff" style="fill: var(--color1, #fff)" opacity="0.5" d="M16.46 22.189h-2.135v-5.243h-1.784v-2.054h1.784v-1.514c0-0.865 0.243-1.532 0.73-2s1.135-0.703 1.946-0.703c0.649 0 1.18 0.027 1.595 0.081v1.811l-1.108 0.027c-0.396 0-0.667 0.081-0.811 0.243s-0.216 0.405-0.216 0.73v1.324h2.054l-0.27 2.054h-1.784v5.243z"></path>
</symbol>
<symbol id="icon-skype" viewBox="0 0 32 32">
<path fill="none" opacity="0.1" stroke="#fff" style="stroke: var(--color1, #fff)" stroke-linejoin="miter" stroke-linecap="butt" stroke-miterlimit="4" stroke-width="0.8649" d="M31.568 16c0 8.598-6.97 15.568-15.568 15.568s-15.568-6.97-15.568-15.568c0-8.598 6.97-15.568 15.568-15.568s15.568 6.97 15.568 15.568z"></path>
<path fill="#fff" style="fill: var(--color1, #fff)" opacity="0.5" d="M21.568 17.649c0.234 0.451 0.351 0.919 0.351 1.405 0 0.865-0.315 1.604-0.946 2.216-0.613 0.613-1.36 0.919-2.243 0.919-0.541 0-1.045-0.117-1.514-0.351-0.342 0.054-0.676 0.081-1 0.081-1.531 0-2.838-0.532-3.919-1.595-1.063-1.063-1.595-2.342-1.595-3.838 0-0.36 0.036-0.721 0.108-1.081-0.288-0.486-0.432-1.018-0.432-1.595 0-0.865 0.306-1.604 0.919-2.216 0.631-0.613 1.387-0.919 2.27-0.919 0.613 0 1.18 0.162 1.703 0.486 0.306-0.054 0.622-0.081 0.946-0.081 1.514 0 2.802 0.532 3.865 1.595 1.081 1.045 1.622 2.315 1.622 3.811 0 0.396-0.045 0.784-0.135 1.162zM17.865 19.892c0.486-0.198 0.856-0.468 1.108-0.811 0.27-0.36 0.405-0.766 0.405-1.216 0-0.378-0.081-0.694-0.243-0.946-0.144-0.27-0.351-0.486-0.622-0.649-0.252-0.18-0.559-0.324-0.919-0.432-0.378-0.108-0.784-0.216-1.216-0.324-0.36-0.072-0.622-0.135-0.784-0.189-0.144-0.036-0.288-0.090-0.432-0.162s-0.252-0.153-0.324-0.243c-0.072-0.090-0.108-0.198-0.108-0.324 0-0.198 0.108-0.369 0.324-0.514 0.252-0.144 0.577-0.216 0.973-0.216 0.414 0 0.721 0.063 0.919 0.189 0.18 0.144 0.342 0.351 0.486 0.622 0.108 0.198 0.216 0.342 0.324 0.432s0.27 0.135 0.486 0.135 0.396-0.072 0.541-0.216c0.162-0.162 0.243-0.342 0.243-0.541s-0.063-0.396-0.189-0.595c-0.108-0.216-0.288-0.414-0.541-0.595-0.234-0.198-0.532-0.351-0.892-0.459-0.36-0.126-0.784-0.189-1.27-0.189-0.631 0-1.171 0.090-1.622 0.27-0.469 0.162-0.829 0.405-1.081 0.73-0.234 0.324-0.351 0.685-0.351 1.081 0 0.432 0.117 0.802 0.351 1.108 0.234 0.288 0.55 0.513 0.946 0.676 0.378 0.162 0.856 0.306 1.432 0.432 0.414 0.072 0.748 0.153 1 0.243 0.252 0.072 0.451 0.171 0.595 0.297 0.144 0.144 0.216 0.324 0.216 0.541 0 0.252-0.135 0.477-0.405 0.676-0.288 0.18-0.658 0.27-1.108 0.27-0.324 0-0.595-0.045-0.811-0.135-0.198-0.090-0.351-0.207-0.459-0.351s-0.207-0.333-0.297-0.568c-0.090-0.198-0.198-0.351-0.324-0.459-0.144-0.108-0.306-0.162-0.486-0.162-0.234 0-0.432 0.072-0.595 0.216-0.144 0.144-0.216 0.315-0.216 0.514 0 0.324 0.117 0.649 0.351 0.973s0.541 0.585 0.919 0.784c0.504 0.27 1.153 0.405 1.946 0.405 0.667 0 1.243-0.099 1.73-0.297z"></path>
</symbol>
<symbol id="icon-6" viewBox="0 0 23 32">
<path fill="#2493eb" style="fill: var(--color1, #2493eb)" opacity="0.1" d="M0.181 18.519c0-1.774 0.127-3.533 0.38-5.279 0.253-1.76 0.711-3.414 1.372-4.962 0.662-1.563 1.598-2.942 2.808-4.139 1.211-1.211 2.766-2.161 4.666-2.85s4.216-1.035 6.947-1.035c0.605 0 1.344 0.035 2.217 0.106s1.598 0.155 2.175 0.253v6.524c-0.577-0.113-1.225-0.204-1.943-0.274-0.718-0.084-1.598-0.127-2.639-0.127-2.083 0-3.73 0.317-4.941 0.95-1.197 0.619-2.062 1.513-2.597 2.682s-0.845 2.569-0.929 4.202h0.253c0.366-0.676 0.809-1.281 1.33-1.816 0.535-0.549 1.189-0.978 1.964-1.288 0.774-0.324 1.71-0.486 2.808-0.486 1.802 0 3.35 0.394 4.645 1.182 1.295 0.774 2.287 1.907 2.977 3.399s1.035 3.308 1.035 5.448c0 2.309-0.443 4.286-1.33 5.933-0.873 1.633-2.126 2.886-3.758 3.758-1.619 0.859-3.554 1.288-5.807 1.288-1.661 0-3.202-0.267-4.624-0.802-1.408-0.535-2.639-1.351-3.695-2.449-1.042-1.112-1.858-2.513-2.449-4.202-0.577-1.703-0.866-3.709-0.866-6.018zM11.625 25.381c0.887 0 1.605-0.338 2.154-1.014 0.563-0.676 0.845-1.738 0.845-3.188 0-1.168-0.232-2.083-0.697-2.745-0.45-0.676-1.189-1.014-2.217-1.014-0.69 0-1.274 0.169-1.753 0.507-0.479 0.324-0.845 0.739-1.098 1.246s-0.38 1.035-0.38 1.584c0 0.549 0.056 1.098 0.169 1.647 0.127 0.549 0.317 1.049 0.57 1.499 0.267 0.436 0.598 0.795 0.992 1.077 0.394 0.267 0.866 0.401 1.415 0.401z"></path>
</symbol>
</defs>
</svg>
